<svg width="413" height="226" viewBox="0 0 413 226" fill="none" xmlns="http://www.w3.org/2000/svg">
<mask id="mask0_593_5961" style="mask-type:alpha" maskUnits="userSpaceOnUse" x="0" y="0" width="413" height="226">
<path d="M16 0.5H397C405.56 0.5 412.5 7.43959 412.5 16V224.632H0.5V16C0.5 7.43958 7.43959 0.5 16 0.5Z" fill="white" stroke="#C5C7D0"/>
</mask>
<g mask="url(#mask0_593_5961)">
<g filter="url(#filter0_f_593_5961)">
<rect width="459.948" height="309.299" transform="matrix(-0.945646 0.325197 -0.406084 -0.913836 443.979 142.393)" fill="#B35AFA"/>
</g>
<g filter="url(#filter1_f_593_5961)">
<rect width="189.1" height="189.385" transform="matrix(-0.945646 0.325197 -0.406084 -0.913836 482.986 213.261)" fill="#770DB8"/>
</g>
<g filter="url(#filter2_f_593_5961)">
<rect width="188.116" height="110.279" transform="matrix(-0.945646 0.325197 -0.406084 -0.913836 200.282 127.965)" fill="#9747FF"/>
</g>
<g filter="url(#filter3_f_593_5961)">
<path d="M67.5197 -51.8086C107.539 -77.904 201.897 -16.8797 227.754 15.0462C253.61 46.9721 242.129 94.0076 202.11 120.103C162.09 146.198 74.5851 128.372 48.7284 96.446C22.8718 64.5202 206.988 94.6182 67.5197 -51.8086Z" fill="#495AFF"/>
</g>
<g filter="url(#filter4_f_593_5961)">
<ellipse cx="162.95" cy="61.8989" rx="162.95" ry="61.8989" transform="matrix(-0.963664 0.267116 -0.334252 -0.942484 289.797 211.47)" fill="#BF1BCD"/>
</g>
<g filter="url(#filter5_f_593_5961)">
<path d="M396.23 -74.3004L327.128 100.923C327.128 100.923 253.967 117.537 261.722 74.7944C269.478 32.0513 246.183 2.03718 246.183 2.03718L181.327 -22.232L396.23 -74.3004Z" fill="#45EEF9"/>
</g>
<rect x="-31.0215" y="-15.5327" width="485" height="259.844" fill="#FBFCFF" fill-opacity="0.35"/>
</g>
<g clip-path="url(#clip0_593_5961)">
<mask id="path-9-inside-1_593_5961" fill="white">
<path d="M206 101.812C196.919 101.812 189.519 109.133 189.519 118.13C189.519 127.122 196.913 134.449 206 134.449C215.08 134.449 222.481 127.128 222.481 118.13C222.481 109.139 215.08 101.812 206 101.812ZM206 130.629C199.033 130.629 193.377 125.023 193.377 118.131C193.377 111.232 199.039 105.633 206 105.633C212.967 105.633 218.622 111.239 218.622 118.131C218.622 125.029 212.967 130.629 206 130.629ZM283.221 72.2398V50.6672C283.221 50.0464 282.904 49.4577 282.394 49.0929C282.264 49.0097 282.129 48.9457 281.999 48.8817H281.98L263.295 41.804C262.849 41.6376 262.371 41.6376 261.925 41.804L243.247 48.8817H243.227C243.098 48.9329 242.943 48.9969 242.833 49.0929C242.303 49.4513 242.006 50.0272 242.006 50.6672V72.2463C242.006 73.0334 242.504 73.7374 243.247 74.0125L246.575 75.2732L227.574 94.0804L225.972 92.4933C224.795 91.3286 223.011 91.1494 221.622 92.0326L217.053 94.9636C216.309 94.618 215.547 94.2916 214.771 94.0293L213.627 88.769C213.278 87.1627 211.876 86.0491 210.221 86.0491H201.819C200.165 86.0491 198.756 87.1626 198.413 88.769L197.269 94.0293C196.494 94.3108 195.731 94.618 194.988 94.9636L190.418 92.0326C189.029 91.1494 187.238 91.3286 186.069 92.4933L184.466 94.0804L165.445 75.2732L168.774 74.0125C169.517 73.7309 170.015 73.027 170.015 72.2463V50.6672C170.015 50.0464 169.698 49.4577 169.187 49.0929C169.058 49.0097 168.922 48.9457 168.793 48.8817H168.774L150.076 41.804C149.63 41.6376 149.151 41.6376 148.705 41.804L130.041 48.8817H130.021C129.873 48.9457 129.743 49.0097 129.608 49.0929C129.078 49.4513 128.78 50.0272 128.78 50.6672V72.2463C128.78 73.0334 129.278 73.7374 130.021 74.0125L148.719 81.1031C148.932 81.1862 149.165 81.231 149.398 81.231C149.631 81.231 149.863 81.1798 150.096 81.1031L161.529 76.7643L181.733 96.769L180.13 98.3561C178.954 99.5208 178.773 101.287 179.665 102.663L182.625 107.187C182.276 107.923 181.946 108.678 181.681 109.446L176.369 110.579C174.746 110.925 173.622 112.313 173.622 113.951V122.271C173.622 123.909 174.746 125.304 176.369 125.643L181.681 126.776C181.965 127.544 182.276 128.299 182.625 129.035L179.665 133.559C178.773 134.935 178.954 136.708 180.13 137.866L181.733 139.453L161.509 159.496L150.076 155.157C149.63 154.99 149.152 154.99 148.706 155.157L130.041 162.235H130.022C129.873 162.299 129.744 162.363 129.608 162.459C129.078 162.817 128.781 163.393 128.781 164.033V185.612C128.781 186.399 129.278 187.103 130.022 187.378L148.72 194.469C148.933 194.552 149.165 194.597 149.398 194.597C149.631 194.597 149.864 194.546 150.096 194.469L168.794 187.378C169.537 187.097 170.035 186.393 170.035 185.612V164.02C170.035 163.399 169.718 162.81 169.208 162.445C169.079 162.362 168.943 162.298 168.814 162.234H168.794L165.485 160.974L184.479 142.166L186.082 143.753C187.258 144.918 189.042 145.097 190.432 144.214L195.001 141.283C195.744 141.629 196.507 141.955 197.283 142.218L198.427 147.478C198.776 149.084 200.178 150.198 201.833 150.198H210.235C211.889 150.198 213.298 149.084 213.641 147.478L214.785 142.218C215.56 141.936 216.323 141.629 217.066 141.283L221.635 144.214C223.025 145.097 224.815 144.918 225.985 143.753L227.588 142.166L246.582 160.974L243.273 162.234H243.254C243.124 162.285 242.969 162.349 242.859 162.445C242.329 162.804 242.032 163.38 242.032 164.02V185.599C242.032 186.386 242.53 187.09 243.273 187.365L261.971 194.456C262.184 194.539 262.417 194.584 262.65 194.584C262.882 194.584 263.115 194.532 263.348 194.456L282.046 187.365C282.789 187.083 283.287 186.38 283.287 185.599V164.02C283.287 163.399 282.97 162.81 282.459 162.445C282.33 162.362 282.194 162.298 282.065 162.234H282.046L263.296 155.157C262.85 154.99 262.372 154.99 261.926 155.157L250.493 159.495L230.289 139.491L231.892 137.903C233.068 136.739 233.249 134.972 232.357 133.597L229.397 129.072C229.746 128.336 230.076 127.581 230.341 126.813L235.653 125.681C237.276 125.335 238.4 123.946 238.4 122.308V113.989C238.4 112.351 237.276 110.955 235.653 110.616L230.341 109.484C230.057 108.716 229.746 107.961 229.397 107.225L232.357 102.7C233.249 101.324 233.068 99.5517 231.892 98.3935L230.289 96.8064L250.493 76.8017L261.926 81.1404C262.139 81.2236 262.372 81.2684 262.605 81.2684C262.837 81.2684 263.07 81.2172 263.303 81.1404L282.001 74.0499C282.725 73.7299 283.222 73.026 283.222 72.2388L283.221 72.2398ZM149.396 45.6181L162.717 50.6608L149.396 55.7035L136.076 50.6672L149.396 45.6181ZM132.617 53.4381L147.457 59.076V76.5726L132.617 70.9347V53.4381ZM151.315 59.0697L166.155 53.4318V70.9283L151.315 76.5662V59.0697ZM149.396 158.971L162.716 164.013L149.396 169.056L136.075 164.013L149.396 158.971ZM132.617 166.784L147.456 172.422V189.919L132.617 184.281V166.784ZM166.16 184.281L151.32 189.919L151.314 172.422L166.153 166.784L166.16 184.281ZM245.836 166.784L260.675 172.422V189.919L245.836 184.281V166.784ZM279.379 184.281L264.539 189.919L264.533 172.422L279.372 166.784L279.379 184.281ZM262.6 158.971L275.92 164.014L262.6 169.057L249.279 164.014L262.6 158.971ZM234.57 114.265V121.996L229.342 123.109C228.152 123.371 227.189 124.191 226.795 125.336C226.53 126.091 226.213 126.846 225.851 127.582C225.321 128.683 225.405 129.944 226.065 130.955L228.98 135.409L223.454 140.88L218.955 137.994C217.928 137.342 216.654 137.258 215.549 137.783C214.819 138.129 214.063 138.455 213.281 138.717C212.124 139.108 211.277 140.061 211.031 141.239L209.907 146.416H202.099L200.975 141.239C200.71 140.061 199.883 139.108 198.726 138.717C197.963 138.455 197.2 138.141 196.457 137.783C195.345 137.258 194.072 137.342 193.051 137.994L188.553 140.88L183.027 135.409L185.942 130.955C186.601 129.937 186.685 128.677 186.155 127.582C185.806 126.859 185.476 126.091 185.211 125.336C184.817 124.191 183.854 123.352 182.665 123.109L177.436 121.996V114.265L182.665 113.151C183.854 112.889 184.817 112.07 185.211 110.924C185.476 110.169 185.793 109.414 186.155 108.678C186.685 107.577 186.601 106.317 185.942 105.306L183.027 100.852L188.553 95.3801L193.051 98.2663C194.079 98.919 195.352 99.0022 196.457 98.4774C197.2 98.1319 197.963 97.8055 198.726 97.5431C199.883 97.1528 200.729 96.1993 200.975 95.0217L202.099 89.8445H209.907L211.031 95.0217C211.296 96.1992 212.124 97.1527 213.281 97.5431C214.043 97.8055 214.806 98.1191 215.549 98.4774C216.661 99.0022 217.934 98.919 218.955 98.2663L223.454 95.3801L228.98 100.852L226.065 105.306C225.405 106.323 225.321 107.584 225.851 108.678C226.2 109.401 226.53 110.15 226.795 110.924C227.189 112.07 228.152 112.908 229.342 113.151L234.57 114.265ZM262.6 45.6187L275.92 50.6615L262.6 55.7042L249.279 50.6615L262.6 45.6187ZM245.834 53.4388L260.674 59.0767V76.5733L245.834 70.9354V53.4388ZM279.377 70.9354L264.538 76.5733L264.531 59.0701L279.37 53.4322L279.377 70.9354ZM174.229 62.085C174.229 61.0355 175.089 60.1843 176.149 60.1843H236.391C237.45 60.1843 238.31 61.0354 238.31 62.085C238.31 63.1345 237.451 63.9857 236.391 63.9857H176.162C175.089 63.9857 174.229 63.1346 174.229 62.085ZM238.387 174.178C238.387 175.227 237.528 176.078 236.468 176.078H175.979C174.919 176.078 174.06 175.227 174.06 174.178C174.06 173.128 174.919 172.277 175.979 172.277H236.468C237.528 172.277 238.387 173.128 238.387 174.178ZM149.391 150.538C148.331 150.538 147.471 149.687 147.471 148.637V87.5285C147.471 86.479 148.331 85.6278 149.391 85.6278C150.451 85.6278 151.311 86.4789 151.311 87.5285V148.617C151.311 149.686 150.451 150.538 149.391 150.538ZM262.598 85.3974C263.658 85.3974 264.518 86.2485 264.518 87.2981V149.046C264.518 150.095 263.658 150.946 262.598 150.946C261.538 150.946 260.679 150.095 260.679 149.046V87.2981C260.679 86.2486 261.538 85.3974 262.598 85.3974Z"/>
</mask>
<path d="M206 101.812C196.919 101.812 189.519 109.133 189.519 118.13C189.519 127.122 196.913 134.449 206 134.449C215.08 134.449 222.481 127.128 222.481 118.13C222.481 109.139 215.08 101.812 206 101.812ZM206 130.629C199.033 130.629 193.377 125.023 193.377 118.131C193.377 111.232 199.039 105.633 206 105.633C212.967 105.633 218.622 111.239 218.622 118.131C218.622 125.029 212.967 130.629 206 130.629ZM283.221 72.2398V50.6672C283.221 50.0464 282.904 49.4577 282.394 49.0929C282.264 49.0097 282.129 48.9457 281.999 48.8817H281.98L263.295 41.804C262.849 41.6376 262.371 41.6376 261.925 41.804L243.247 48.8817H243.227C243.098 48.9329 242.943 48.9969 242.833 49.0929C242.303 49.4513 242.006 50.0272 242.006 50.6672V72.2463C242.006 73.0334 242.504 73.7374 243.247 74.0125L246.575 75.2732L227.574 94.0804L225.972 92.4933C224.795 91.3286 223.011 91.1494 221.622 92.0326L217.053 94.9636C216.309 94.618 215.547 94.2916 214.771 94.0293L213.627 88.769C213.278 87.1627 211.876 86.0491 210.221 86.0491H201.819C200.165 86.0491 198.756 87.1626 198.413 88.769L197.269 94.0293C196.494 94.3108 195.731 94.618 194.988 94.9636L190.418 92.0326C189.029 91.1494 187.238 91.3286 186.069 92.4933L184.466 94.0804L165.445 75.2732L168.774 74.0125C169.517 73.7309 170.015 73.027 170.015 72.2463V50.6672C170.015 50.0464 169.698 49.4577 169.187 49.0929C169.058 49.0097 168.922 48.9457 168.793 48.8817H168.774L150.076 41.804C149.63 41.6376 149.151 41.6376 148.705 41.804L130.041 48.8817H130.021C129.873 48.9457 129.743 49.0097 129.608 49.0929C129.078 49.4513 128.78 50.0272 128.78 50.6672V72.2463C128.78 73.0334 129.278 73.7374 130.021 74.0125L148.719 81.1031C148.932 81.1862 149.165 81.231 149.398 81.231C149.631 81.231 149.863 81.1798 150.096 81.1031L161.529 76.7643L181.733 96.769L180.13 98.3561C178.954 99.5208 178.773 101.287 179.665 102.663L182.625 107.187C182.276 107.923 181.946 108.678 181.681 109.446L176.369 110.579C174.746 110.925 173.622 112.313 173.622 113.951V122.271C173.622 123.909 174.746 125.304 176.369 125.643L181.681 126.776C181.965 127.544 182.276 128.299 182.625 129.035L179.665 133.559C178.773 134.935 178.954 136.708 180.13 137.866L181.733 139.453L161.509 159.496L150.076 155.157C149.63 154.99 149.152 154.99 148.706 155.157L130.041 162.235H130.022C129.873 162.299 129.744 162.363 129.608 162.459C129.078 162.817 128.781 163.393 128.781 164.033V185.612C128.781 186.399 129.278 187.103 130.022 187.378L148.72 194.469C148.933 194.552 149.165 194.597 149.398 194.597C149.631 194.597 149.864 194.546 150.096 194.469L168.794 187.378C169.537 187.097 170.035 186.393 170.035 185.612V164.02C170.035 163.399 169.718 162.81 169.208 162.445C169.079 162.362 168.943 162.298 168.814 162.234H168.794L165.485 160.974L184.479 142.166L186.082 143.753C187.258 144.918 189.042 145.097 190.432 144.214L195.001 141.283C195.744 141.629 196.507 141.955 197.283 142.218L198.427 147.478C198.776 149.084 200.178 150.198 201.833 150.198H210.235C211.889 150.198 213.298 149.084 213.641 147.478L214.785 142.218C215.56 141.936 216.323 141.629 217.066 141.283L221.635 144.214C223.025 145.097 224.815 144.918 225.985 143.753L227.588 142.166L246.582 160.974L243.273 162.234H243.254C243.124 162.285 242.969 162.349 242.859 162.445C242.329 162.804 242.032 163.38 242.032 164.02V185.599C242.032 186.386 242.53 187.09 243.273 187.365L261.971 194.456C262.184 194.539 262.417 194.584 262.65 194.584C262.882 194.584 263.115 194.532 263.348 194.456L282.046 187.365C282.789 187.083 283.287 186.38 283.287 185.599V164.02C283.287 163.399 282.97 162.81 282.459 162.445C282.33 162.362 282.194 162.298 282.065 162.234H282.046L263.296 155.157C262.85 154.99 262.372 154.99 261.926 155.157L250.493 159.495L230.289 139.491L231.892 137.903C233.068 136.739 233.249 134.972 232.357 133.597L229.397 129.072C229.746 128.336 230.076 127.581 230.341 126.813L235.653 125.681C237.276 125.335 238.4 123.946 238.4 122.308V113.989C238.4 112.351 237.276 110.955 235.653 110.616L230.341 109.484C230.057 108.716 229.746 107.961 229.397 107.225L232.357 102.7C233.249 101.324 233.068 99.5517 231.892 98.3935L230.289 96.8064L250.493 76.8017L261.926 81.1404C262.139 81.2236 262.372 81.2684 262.605 81.2684C262.837 81.2684 263.07 81.2172 263.303 81.1404L282.001 74.0499C282.725 73.7299 283.222 73.026 283.222 72.2388L283.221 72.2398ZM149.396 45.6181L162.717 50.6608L149.396 55.7035L136.076 50.6672L149.396 45.6181ZM132.617 53.4381L147.457 59.076V76.5726L132.617 70.9347V53.4381ZM151.315 59.0697L166.155 53.4318V70.9283L151.315 76.5662V59.0697ZM149.396 158.971L162.716 164.013L149.396 169.056L136.075 164.013L149.396 158.971ZM132.617 166.784L147.456 172.422V189.919L132.617 184.281V166.784ZM166.16 184.281L151.32 189.919L151.314 172.422L166.153 166.784L166.16 184.281ZM245.836 166.784L260.675 172.422V189.919L245.836 184.281V166.784ZM279.379 184.281L264.539 189.919L264.533 172.422L279.372 166.784L279.379 184.281ZM262.6 158.971L275.92 164.014L262.6 169.057L249.279 164.014L262.6 158.971ZM234.57 114.265V121.996L229.342 123.109C228.152 123.371 227.189 124.191 226.795 125.336C226.53 126.091 226.213 126.846 225.851 127.582C225.321 128.683 225.405 129.944 226.065 130.955L228.98 135.409L223.454 140.88L218.955 137.994C217.928 137.342 216.654 137.258 215.549 137.783C214.819 138.129 214.063 138.455 213.281 138.717C212.124 139.108 211.277 140.061 211.031 141.239L209.907 146.416H202.099L200.975 141.239C200.71 140.061 199.883 139.108 198.726 138.717C197.963 138.455 197.2 138.141 196.457 137.783C195.345 137.258 194.072 137.342 193.051 137.994L188.553 140.88L183.027 135.409L185.942 130.955C186.601 129.937 186.685 128.677 186.155 127.582C185.806 126.859 185.476 126.091 185.211 125.336C184.817 124.191 183.854 123.352 182.665 123.109L177.436 121.996V114.265L182.665 113.151C183.854 112.889 184.817 112.07 185.211 110.924C185.476 110.169 185.793 109.414 186.155 108.678C186.685 107.577 186.601 106.317 185.942 105.306L183.027 100.852L188.553 95.3801L193.051 98.2663C194.079 98.919 195.352 99.0022 196.457 98.4774C197.2 98.1319 197.963 97.8055 198.726 97.5431C199.883 97.1528 200.729 96.1993 200.975 95.0217L202.099 89.8445H209.907L211.031 95.0217C211.296 96.1992 212.124 97.1527 213.281 97.5431C214.043 97.8055 214.806 98.1191 215.549 98.4774C216.661 99.0022 217.934 98.919 218.955 98.2663L223.454 95.3801L228.98 100.852L226.065 105.306C225.405 106.323 225.321 107.584 225.851 108.678C226.2 109.401 226.53 110.15 226.795 110.924C227.189 112.07 228.152 112.908 229.342 113.151L234.57 114.265ZM262.6 45.6187L275.92 50.6615L262.6 55.7042L249.279 50.6615L262.6 45.6187ZM245.834 53.4388L260.674 59.0767V76.5733L245.834 70.9354V53.4388ZM279.377 70.9354L264.538 76.5733L264.531 59.0701L279.37 53.4322L279.377 70.9354ZM174.229 62.085C174.229 61.0355 175.089 60.1843 176.149 60.1843H236.391C237.45 60.1843 238.31 61.0354 238.31 62.085C238.31 63.1345 237.451 63.9857 236.391 63.9857H176.162C175.089 63.9857 174.229 63.1346 174.229 62.085ZM238.387 174.178C238.387 175.227 237.528 176.078 236.468 176.078H175.979C174.919 176.078 174.06 175.227 174.06 174.178C174.06 173.128 174.919 172.277 175.979 172.277H236.468C237.528 172.277 238.387 173.128 238.387 174.178ZM149.391 150.538C148.331 150.538 147.471 149.687 147.471 148.637V87.5285C147.471 86.479 148.331 85.6278 149.391 85.6278C150.451 85.6278 151.311 86.4789 151.311 87.5285V148.617C151.311 149.686 150.451 150.538 149.391 150.538ZM262.598 85.3974C263.658 85.3974 264.518 86.2485 264.518 87.2981V149.046C264.518 150.095 263.658 150.946 262.598 150.946C261.538 150.946 260.679 150.095 260.679 149.046V87.2981C260.679 86.2486 261.538 85.3974 262.598 85.3974Z" fill="#323338" stroke="#323338" stroke-width="2" mask="url(#path-9-inside-1_593_5961)"/>
</g>
<defs>
<filter id="filter0_f_593_5961" x="-231.57" y="-255.255" width="790.549" height="662.222" filterUnits="userSpaceOnUse" color-interpolation-filters="sRGB">
<feFlood flood-opacity="0" result="BackgroundImageFix"/>
<feBlend mode="normal" in="SourceGraphic" in2="BackgroundImageFix" result="shape"/>
<feGaussianBlur stdDeviation="57.5" result="effect1_foregroundBlur_593_5961"/>
</filter>
<filter id="filter1_f_593_5961" x="112.258" y="-74.8057" width="485.729" height="464.562" filterUnits="userSpaceOnUse" color-interpolation-filters="sRGB">
<feFlood flood-opacity="0" result="BackgroundImageFix"/>
<feBlend mode="normal" in="SourceGraphic" in2="BackgroundImageFix" result="shape"/>
<feGaussianBlur stdDeviation="57.5" result="effect1_foregroundBlur_593_5961"/>
</filter>
<filter id="filter2_f_593_5961" x="-137.391" y="-87.812" width="452.673" height="391.952" filterUnits="userSpaceOnUse" color-interpolation-filters="sRGB">
<feFlood flood-opacity="0" result="BackgroundImageFix"/>
<feBlend mode="normal" in="SourceGraphic" in2="BackgroundImageFix" result="shape"/>
<feGaussianBlur stdDeviation="57.5" result="effect1_foregroundBlur_593_5961"/>
</filter>
<filter id="filter3_f_593_5961" x="-68.8018" y="-173.135" width="425.375" height="420.798" filterUnits="userSpaceOnUse" color-interpolation-filters="sRGB">
<feFlood flood-opacity="0" result="BackgroundImageFix"/>
<feBlend mode="normal" in="SourceGraphic" in2="BackgroundImageFix" result="shape"/>
<feGaussianBlur stdDeviation="57.5" result="effect1_foregroundBlur_593_5961"/>
</filter>
<filter id="filter4_f_593_5961" x="-161.326" y="8.86572" width="546.809" height="375.583" filterUnits="userSpaceOnUse" color-interpolation-filters="sRGB">
<feFlood flood-opacity="0" result="BackgroundImageFix"/>
<feBlend mode="normal" in="SourceGraphic" in2="BackgroundImageFix" result="shape"/>
<feGaussianBlur stdDeviation="57.5" result="effect1_foregroundBlur_593_5961"/>
</filter>
<filter id="filter5_f_593_5961" x="66.3267" y="-189.3" width="444.903" height="408.402" filterUnits="userSpaceOnUse" color-interpolation-filters="sRGB">
<feFlood flood-opacity="0" result="BackgroundImageFix"/>
<feBlend mode="normal" in="SourceGraphic" in2="BackgroundImageFix" result="shape"/>
<feGaussianBlur stdDeviation="57.5" result="effect1_foregroundBlur_593_5961"/>
</filter>
<clipPath id="clip0_593_5961">
<rect width="178" height="190" fill="white" transform="translate(119 20)"/>
</clipPath>
</defs>
</svg>
