<svg width="413" height="227" viewBox="0 0 413 227" fill="none" xmlns="http://www.w3.org/2000/svg">
<mask id="mask0_595_5962" style="mask-type:alpha" maskUnits="userSpaceOnUse" x="0" y="0" width="413" height="227">
<path d="M16 0.5H397C405.56 0.5 412.5 7.43959 412.5 16V226.5H0.5V16C0.5 7.43959 7.43959 0.5 16 0.5Z" fill="white" stroke="#C5C7D0"/>
</mask>
<g mask="url(#mask0_595_5962)">
<g filter="url(#filter0_f_595_5962)">
<rect x="-11.978" y="-9.33789" width="467" height="272" fill="#B35AFA"/>
</g>
<g filter="url(#filter1_f_595_5962)">
<rect x="-18.978" y="-10.3379" width="192" height="123" fill="#770DB8"/>
</g>
<g filter="url(#filter2_f_595_5962)">
<rect x="209.022" y="94.6621" width="191" height="123" fill="#9747FF"/>
</g>
<g filter="url(#filter3_f_595_5962)">
<path d="M258.268 333.331C210.195 346.389 147.57 247.426 136.701 204.211C125.833 160.996 155.993 115.378 204.066 102.321C252.138 89.2634 326.26 139.996 337.128 183.211C347.997 226.426 188.975 127.526 258.268 333.331Z" fill="#495AFF"/>
</g>
<g filter="url(#filter4_f_595_5962)">
<ellipse cx="164.64" cy="69.4691" rx="164.64" ry="69.4691" transform="matrix(0.997729 0.0673543 -0.0701764 0.997535 160.211 -26.3379)" fill="#5DCFFF"/>
</g>
<g filter="url(#filter5_f_595_5962)">
<path d="M-57.1894 237.465L79.6905 77.1096C79.6905 77.1096 154.706 86.1561 129.793 128.586C104.879 171.016 114.153 211.274 114.153 211.274L164.514 260.581L-57.1894 237.465Z" fill="#C13FD3"/>
</g>
<rect x="-50" y="-14" width="485" height="262" fill="#FBFCFF" fill-opacity="0.35"/>
</g>
<path d="M265.813 133.918H249.847C247.223 133.918 245.086 136.044 245.086 138.665V138.75C239.784 135.113 231.46 130.293 225.472 131.038C220.983 131.609 216.624 134.898 212.419 138.085C208.308 141.196 204.063 144.407 200.605 144.407H176.754C175.962 144.407 175.215 144.493 174.508 144.614C170.685 142.374 157.742 134.845 153.606 133.08C150.291 131.662 146.562 132.448 144.34 135.024C142.292 137.397 141.26 141.795 144.555 147.101C149.316 154.767 163.787 178.067 177.721 182.356C180 183.061 195.535 187.686 208.397 187.686C212.935 187.686 217.14 187.107 220.317 185.576C230.973 180.428 240.438 178.861 245.09 178.387V179.152C245.09 181.769 247.223 183.899 249.851 183.899H265.817C268.441 183.899 270.578 181.773 270.578 179.152V138.661C270.57 136.044 268.437 133.918 265.813 133.918ZM217.656 180.112C210.863 183.397 193.329 180.809 179.513 176.552C171.721 174.155 161.699 163.167 149.694 143.845C148.171 141.394 148.345 139.693 148.955 138.989C149.454 138.401 150.312 138.284 151.201 138.665C154.033 139.876 162.3 144.549 168.451 148.125C167.061 149.867 166.318 152.001 166.318 154.152C166.318 156.93 167.5 159.619 169.556 161.539C171.128 163.009 173.976 164.751 178.615 164.751H206.626C208.308 164.751 209.673 163.39 209.673 161.713C209.673 160.036 208.308 158.676 206.626 158.676H178.615C176.511 158.676 174.821 158.137 173.72 157.108C172.879 156.319 172.412 155.266 172.412 154.152C172.412 152.459 173.545 150.482 176.75 150.482H200.601C206.114 150.482 211.184 146.647 216.096 142.929C219.667 140.224 223.355 137.433 226.228 137.069C230.713 136.53 239.687 142.099 245.082 146.275V172.276C240.125 172.717 229.652 174.313 217.656 180.112ZM264.476 177.828H251.179V139.993H264.476V177.828Z" fill="#323338"/>
<path d="M229.717 93.0212C237.253 93.0212 243.395 86.9057 243.395 79.3849C243.395 71.864 237.253 65.7485 229.717 65.7485C222.173 65.7485 216.039 71.864 216.039 79.3849C216.039 86.9057 222.169 93.0212 229.717 93.0212ZM229.717 71.8235C233.897 71.8235 237.302 75.2174 237.302 79.3849C237.302 83.5523 233.897 86.9462 229.717 86.9462C225.537 86.9462 222.132 83.5523 222.132 79.3849C222.132 75.2174 225.537 71.8235 229.717 71.8235Z" fill="#323338"/>
<path d="M158.7 94.1148C159.241 94.5644 159.931 94.8115 160.646 94.8115H161.353C162.393 94.8115 163.36 94.289 163.917 93.4101L165.948 90.2471L167.979 93.4101C168.544 94.289 169.511 94.8115 170.551 94.8115H180.74C181.771 94.8115 182.746 94.289 183.303 93.4101L185.334 90.2471L187.365 93.4101C187.93 94.289 188.897 94.8115 189.937 94.8115H199.768C205.281 104.264 215.295 110.064 226.341 110.064C243.306 110.064 257.11 96.3019 257.11 79.3891C257.11 62.4763 243.306 48.7144 226.341 48.7144C215.295 48.7144 205.281 54.514 199.768 63.9667H160.65C159.935 63.9667 159.245 64.2137 158.705 64.6633L143.73 77.0522C143.031 77.6314 142.633 78.49 142.633 79.3931C142.633 80.2963 143.031 81.1508 143.73 81.7259L158.7 94.1148ZM161.739 70.0336H201.58C202.73 70.0336 203.786 69.3856 204.302 68.3569C208.523 59.9896 216.965 54.7813 226.337 54.7813C239.946 54.7813 251.013 65.8175 251.013 79.381C251.013 92.9444 239.942 103.981 226.337 103.981C216.965 103.981 208.523 98.7764 204.302 90.405C203.786 89.3763 202.73 88.7283 201.58 88.7283H191.599L187.902 82.9612C187.337 82.0904 186.37 81.5599 185.33 81.5599C184.29 81.5599 183.323 82.0904 182.767 82.9612L179.062 88.7283H172.212L168.515 82.9612C167.951 82.0904 166.984 81.5599 165.944 81.5599C164.912 81.5599 163.937 82.0904 163.38 82.9612L160.399 87.6106L150.45 79.3769L161.739 70.0336Z" fill="#323338"/>
<defs>
<filter id="filter0_f_595_5962" x="-126.978" y="-124.338" width="697" height="502" filterUnits="userSpaceOnUse" color-interpolation-filters="sRGB">
<feFlood flood-opacity="0" result="BackgroundImageFix"/>
<feBlend mode="normal" in="SourceGraphic" in2="BackgroundImageFix" result="shape"/>
<feGaussianBlur stdDeviation="57.5" result="effect1_foregroundBlur_595_5962"/>
</filter>
<filter id="filter1_f_595_5962" x="-133.978" y="-125.338" width="422" height="353" filterUnits="userSpaceOnUse" color-interpolation-filters="sRGB">
<feFlood flood-opacity="0" result="BackgroundImageFix"/>
<feBlend mode="normal" in="SourceGraphic" in2="BackgroundImageFix" result="shape"/>
<feGaussianBlur stdDeviation="57.5" result="effect1_foregroundBlur_595_5962"/>
</filter>
<filter id="filter2_f_595_5962" x="94.022" y="-20.3379" width="421" height="353" filterUnits="userSpaceOnUse" color-interpolation-filters="sRGB">
<feFlood flood-opacity="0" result="BackgroundImageFix"/>
<feBlend mode="normal" in="SourceGraphic" in2="BackgroundImageFix" result="shape"/>
<feGaussianBlur stdDeviation="57.5" result="effect1_foregroundBlur_595_5962"/>
</filter>
<filter id="filter3_f_595_5962" x="19.4849" y="-14.7676" width="433.179" height="464.276" filterUnits="userSpaceOnUse" color-interpolation-filters="sRGB">
<feFlood flood-opacity="0" result="BackgroundImageFix"/>
<feBlend mode="normal" in="SourceGraphic" in2="BackgroundImageFix" result="shape"/>
<feGaussianBlur stdDeviation="57.5" result="effect1_foregroundBlur_595_5962"/>
</filter>
<filter id="filter4_f_595_5962" x="40.2627" y="-131.141" width="558.679" height="370.38" filterUnits="userSpaceOnUse" color-interpolation-filters="sRGB">
<feFlood flood-opacity="0" result="BackgroundImageFix"/>
<feBlend mode="normal" in="SourceGraphic" in2="BackgroundImageFix" result="shape"/>
<feGaussianBlur stdDeviation="57.5" result="effect1_foregroundBlur_595_5962"/>
</filter>
<filter id="filter5_f_595_5962" x="-172.189" y="-37.8906" width="451.703" height="413.472" filterUnits="userSpaceOnUse" color-interpolation-filters="sRGB">
<feFlood flood-opacity="0" result="BackgroundImageFix"/>
<feBlend mode="normal" in="SourceGraphic" in2="BackgroundImageFix" result="shape"/>
<feGaussianBlur stdDeviation="57.5" result="effect1_foregroundBlur_595_5962"/>
</filter>
</defs>
</svg>
