<svg width="413" height="227" viewBox="0 0 413 227" fill="none" xmlns="http://www.w3.org/2000/svg">
<mask id="mask0_496_4548" style="mask-type:alpha" maskUnits="userSpaceOnUse" x="0" y="0" width="413" height="227">
<path d="M0.5 16C0.5 7.43959 7.43959 0.5 16 0.5H397C405.56 0.5 412.5 7.43959 412.5 16V226.5H0.5V16Z" fill="white" stroke="#C5C7D0"/>
</mask>
<g mask="url(#mask0_496_4548)">
<g filter="url(#filter0_f_496_4548)">
<rect width="460.353" height="311.444" transform="matrix(-0.944814 0.327607 -0.403288 -0.915073 443.979 143.574)" fill="#B35AFA"/>
</g>
<g filter="url(#filter1_f_496_4548)">
<rect width="189.267" height="190.698" transform="matrix(-0.944814 0.327607 -0.403288 -0.915073 482.986 215.03)" fill="#770DB8"/>
</g>
<g filter="url(#filter2_f_496_4548)">
<rect width="188.281" height="111.044" transform="matrix(-0.944814 0.327607 -0.403288 -0.915073 200.282 129.027)" fill="#9747FF"/>
</g>
<g filter="url(#filter3_f_496_4548)">
<path d="M67.5197 -52.2384C107.539 -78.5503 201.897 -17.0196 227.754 15.1712C253.61 47.362 242.129 94.7879 202.11 121.1C162.09 147.412 74.5851 129.437 48.7284 97.2466C22.8718 65.0558 206.988 95.4035 67.5197 -52.2384Z" fill="#495AFF"/>
</g>
<g filter="url(#filter4_f_496_4548)">
<ellipse cx="163.047" cy="62.3554" rx="163.047" ry="62.3554" transform="matrix(-0.963092 0.269172 -0.331805 -0.943348 289.796 213.225)" fill="#BF1BCD"/>
</g>
<g filter="url(#filter5_f_496_4548)">
<path d="M396.229 -74.917L327.127 101.761C327.127 101.761 253.967 118.513 261.722 75.4151C269.477 32.3174 246.183 2.05415 246.183 2.05415L181.326 -22.4165L396.229 -74.917Z" fill="#45EEF9"/>
</g>
<rect x="-31.0215" y="-15.6616" width="485" height="262" fill="#FBFCFF" fill-opacity="0.05"/>
</g>
<path d="M206 105.039C200.511 105.039 196.039 109.508 196.039 115C196.039 120.488 200.508 124.961 206 124.961C211.488 124.961 215.961 120.492 215.961 115C215.961 109.511 211.488 105.039 206 105.039ZM206 122.629C201.789 122.629 198.371 119.207 198.371 115C198.371 110.789 201.793 107.371 206 107.371C210.211 107.371 213.629 110.793 213.629 115C213.629 119.211 210.211 122.629 206 122.629ZM252.672 86.9878V73.8198C252.672 73.4409 252.48 73.0815 252.172 72.8589C252.094 72.8081 252.012 72.769 251.934 72.73H251.922L240.629 68.4097C240.359 68.3081 240.07 68.3081 239.801 68.4097L228.512 72.73H228.5C228.422 72.7612 228.328 72.8003 228.262 72.8589C227.941 73.0776 227.762 73.4292 227.762 73.8198V86.9918C227.762 87.4723 228.062 87.902 228.512 88.0699L230.523 88.8394L219.039 100.319L218.071 99.3507C217.36 98.6398 216.282 98.5304 215.442 99.0694L212.68 100.859C212.231 100.648 211.77 100.448 211.301 100.288L210.61 97.0773C210.399 96.0969 209.551 95.4171 208.551 95.4171H203.473C202.473 95.4171 201.621 96.0968 201.414 97.0773L200.723 100.288C200.254 100.46 199.793 100.648 199.344 100.859L196.582 99.0694C195.743 98.5304 194.661 98.6398 193.954 99.3507L192.985 100.319L181.489 88.8394L183.5 88.0699C183.95 87.898 184.25 87.4684 184.25 86.9918V73.8198C184.25 73.4409 184.059 73.0815 183.75 72.8589C183.672 72.8081 183.59 72.769 183.512 72.73H183.5L172.199 68.4097C171.93 68.3081 171.641 68.3081 171.371 68.4097L160.09 72.73H160.079C159.989 72.769 159.911 72.8081 159.829 72.8589C159.508 73.0776 159.329 73.4292 159.329 73.8198V86.9918C159.329 87.4723 159.629 87.902 160.079 88.0699L171.38 92.398C171.509 92.4488 171.649 92.4761 171.79 92.4761C171.93 92.4761 172.071 92.4449 172.212 92.398L179.122 89.7496L191.333 101.961L190.364 102.929C189.653 103.64 189.544 104.718 190.083 105.558L191.872 108.32C191.661 108.769 191.462 109.23 191.302 109.699L188.091 110.39C187.11 110.601 186.431 111.449 186.431 112.449V117.527C186.431 118.527 187.11 119.379 188.091 119.586L191.302 120.277C191.474 120.746 191.661 121.207 191.872 121.656L190.083 124.418C189.544 125.257 189.653 126.339 190.364 127.046L191.333 128.015L179.11 140.249L172.2 137.601C171.93 137.499 171.641 137.499 171.372 137.601L160.091 141.921H160.079C159.989 141.96 159.911 141.999 159.829 142.058C159.509 142.277 159.329 142.628 159.329 143.019V156.191C159.329 156.671 159.63 157.101 160.079 157.269L171.38 161.597C171.509 161.648 171.649 161.675 171.79 161.675C171.931 161.675 172.071 161.644 172.212 161.597L183.513 157.269C183.962 157.097 184.263 156.667 184.263 156.191V143.011C184.263 142.632 184.071 142.273 183.763 142.05C183.685 141.999 183.603 141.96 183.525 141.921H183.513L181.513 141.151L192.993 129.671L193.962 130.64C194.673 131.351 195.751 131.46 196.591 130.921L199.352 129.132C199.801 129.343 200.262 129.542 200.731 129.703L201.423 132.914C201.633 133.894 202.481 134.574 203.481 134.574H208.559C209.559 134.574 210.411 133.894 210.618 132.914L211.309 129.703C211.778 129.531 212.239 129.343 212.688 129.132L215.45 130.921C216.29 131.46 217.372 131.351 218.079 130.64L219.047 129.671L230.527 141.151L228.527 141.921H228.516C228.438 141.952 228.344 141.991 228.277 142.05C227.957 142.269 227.777 142.62 227.777 143.011V156.183C227.777 156.663 228.078 157.093 228.527 157.261L239.828 161.589C239.957 161.64 240.098 161.667 240.239 161.667C240.379 161.667 240.52 161.636 240.661 161.589L251.962 157.261C252.411 157.089 252.712 156.659 252.712 156.183V143.011C252.712 142.632 252.52 142.273 252.212 142.05C252.133 141.999 252.051 141.96 251.973 141.921H251.962L240.63 137.601C240.36 137.499 240.071 137.499 239.801 137.601L232.891 140.249L220.68 128.038L221.649 127.069C222.36 126.358 222.469 125.28 221.93 124.44L220.141 121.679C220.352 121.229 220.551 120.769 220.711 120.3L223.922 119.608C224.903 119.397 225.583 118.55 225.583 117.55V112.472C225.583 111.472 224.903 110.62 223.922 110.413L220.711 109.722C220.54 109.253 220.352 108.792 220.141 108.343L221.93 105.581C222.469 104.741 222.36 103.659 221.649 102.952L220.68 101.983L232.891 89.7724L239.801 92.4208C239.93 92.4716 240.071 92.499 240.212 92.499C240.352 92.499 240.493 92.4677 240.633 92.4208L251.934 88.0927C252.372 87.8974 252.673 87.4677 252.673 86.9872L252.672 86.9878ZM171.789 70.7378L179.84 73.8159L171.789 76.894L163.738 73.8198L171.789 70.7378ZM161.648 75.5112L170.617 78.9526V89.6326L161.648 86.1912V75.5112ZM172.949 78.9487L181.918 75.5073V86.1873L172.949 89.6287V78.9487ZM171.789 139.929L179.839 143.007L171.789 146.085L163.738 143.007L171.789 139.929ZM161.648 144.698L170.616 148.14V158.82L161.648 155.378V144.698ZM181.921 155.378L172.952 158.82L172.948 148.14L181.917 144.698L181.921 155.378ZM230.077 144.698L239.045 148.14V158.82L230.077 155.378V144.698ZM250.35 155.378L241.381 158.82L241.377 148.14L250.346 144.698L250.35 155.378ZM240.209 139.929L248.259 143.007L240.209 146.085L232.158 143.007L240.209 139.929ZM223.268 112.64V117.359L220.107 118.039C219.389 118.199 218.807 118.699 218.568 119.398C218.408 119.859 218.217 120.32 217.998 120.769C217.678 121.441 217.728 122.211 218.127 122.828L219.889 125.547L216.549 128.886L213.83 127.125C213.209 126.726 212.439 126.675 211.771 126.996C211.33 127.207 210.873 127.406 210.4 127.566C209.701 127.804 209.189 128.386 209.041 129.105L208.361 132.265H203.642L202.963 129.105C202.803 128.386 202.303 127.804 201.603 127.566C201.142 127.406 200.681 127.215 200.232 126.996C199.56 126.675 198.791 126.726 198.174 127.125L195.455 128.886L192.115 125.547L193.877 122.828C194.275 122.207 194.326 121.437 194.006 120.769C193.795 120.328 193.595 119.859 193.435 119.398C193.197 118.699 192.615 118.187 191.896 118.039L188.736 117.359V112.64L191.896 111.961C192.615 111.8 193.197 111.3 193.435 110.601C193.595 110.14 193.787 109.679 194.006 109.23C194.326 108.558 194.275 107.789 193.877 107.171L192.115 104.453L195.455 101.113L198.174 102.875C198.795 103.273 199.564 103.324 200.232 103.003C200.681 102.792 201.142 102.593 201.603 102.433C202.303 102.195 202.814 101.613 202.963 100.894L203.642 97.7338H208.361L209.041 100.894C209.201 101.613 209.701 102.195 210.4 102.433C210.861 102.593 211.322 102.785 211.771 103.003C212.443 103.324 213.213 103.273 213.83 102.875L216.549 101.113L219.889 104.453L218.127 107.171C217.728 107.793 217.678 108.562 217.998 109.23C218.209 109.671 218.408 110.128 218.568 110.601C218.807 111.3 219.389 111.812 220.107 111.961L223.268 112.64ZM240.209 70.7382L248.259 73.8163L240.209 76.8944L232.158 73.8163L240.209 70.7382ZM230.076 75.5116L239.044 78.953V89.633L230.076 86.1916V75.5116ZM250.349 86.1916L241.38 89.633L241.376 78.949L250.345 75.5076L250.349 86.1916ZM186.798 80.7893C186.798 80.1487 187.317 79.6291 187.958 79.6291H224.368C225.008 79.6291 225.528 80.1486 225.528 80.7893C225.528 81.4299 225.008 81.9495 224.368 81.9495H187.966C187.317 81.9495 186.798 81.43 186.798 80.7893ZM225.575 149.211C225.575 149.852 225.055 150.372 224.414 150.372H187.855C187.215 150.372 186.695 149.852 186.695 149.211C186.695 148.571 187.215 148.051 187.855 148.051H224.414C225.055 148.051 225.575 148.571 225.575 149.211ZM171.786 134.781C171.145 134.781 170.625 134.262 170.625 133.621V96.3201C170.625 95.6795 171.145 95.1599 171.786 95.1599C172.426 95.1599 172.946 95.6794 172.946 96.3201V133.609C172.946 134.261 172.426 134.781 171.786 134.781ZM240.208 95.0193C240.848 95.0193 241.368 95.5388 241.368 96.1795V133.871C241.368 134.511 240.848 135.031 240.208 135.031C239.567 135.031 239.047 134.511 239.047 133.871V96.1795C239.047 95.5389 239.567 95.0193 240.208 95.0193Z" fill="#323338"/>
<circle cx="206.5" cy="113.5" r="93.5" stroke="#5841E8" stroke-width="2"/>
<defs>
<filter id="filter0_f_496_4548" x="-231.57" y="-256.419" width="790.549" height="665.809" filterUnits="userSpaceOnUse" color-interpolation-filters="sRGB">
<feFlood flood-opacity="0" result="BackgroundImageFix"/>
<feBlend mode="normal" in="SourceGraphic" in2="BackgroundImageFix" result="shape"/>
<feGaussianBlur stdDeviation="57.5" result="effect1_foregroundBlur_496_4548"/>
</filter>
<filter id="filter1_f_496_4548" x="112.258" y="-74.4722" width="485.729" height="466.508" filterUnits="userSpaceOnUse" color-interpolation-filters="sRGB">
<feFlood flood-opacity="0" result="BackgroundImageFix"/>
<feBlend mode="normal" in="SourceGraphic" in2="BackgroundImageFix" result="shape"/>
<feGaussianBlur stdDeviation="57.5" result="effect1_foregroundBlur_496_4548"/>
</filter>
<filter id="filter2_f_496_4548" x="-137.392" y="-87.5859" width="452.673" height="393.295" filterUnits="userSpaceOnUse" color-interpolation-filters="sRGB">
<feFlood flood-opacity="0" result="BackgroundImageFix"/>
<feBlend mode="normal" in="SourceGraphic" in2="BackgroundImageFix" result="shape"/>
<feGaussianBlur stdDeviation="57.5" result="effect1_foregroundBlur_496_4548"/>
</filter>
<filter id="filter3_f_496_4548" x="-68.8018" y="-173.618" width="425.375" height="422.381" filterUnits="userSpaceOnUse" color-interpolation-filters="sRGB">
<feFlood flood-opacity="0" result="BackgroundImageFix"/>
<feBlend mode="normal" in="SourceGraphic" in2="BackgroundImageFix" result="shape"/>
<feGaussianBlur stdDeviation="57.5" result="effect1_foregroundBlur_496_4548"/>
</filter>
<filter id="filter4_f_496_4548" x="-161.327" y="9.89404" width="546.809" height="376.791" filterUnits="userSpaceOnUse" color-interpolation-filters="sRGB">
<feFlood flood-opacity="0" result="BackgroundImageFix"/>
<feBlend mode="normal" in="SourceGraphic" in2="BackgroundImageFix" result="shape"/>
<feGaussianBlur stdDeviation="57.5" result="effect1_foregroundBlur_496_4548"/>
</filter>
<filter id="filter5_f_496_4548" x="66.3262" y="-189.917" width="444.903" height="409.882" filterUnits="userSpaceOnUse" color-interpolation-filters="sRGB">
<feFlood flood-opacity="0" result="BackgroundImageFix"/>
<feBlend mode="normal" in="SourceGraphic" in2="BackgroundImageFix" result="shape"/>
<feGaussianBlur stdDeviation="57.5" result="effect1_foregroundBlur_496_4548"/>
</filter>
</defs>
</svg>
