<svg width="413" height="229" viewBox="0 0 413 229" fill="none" xmlns="http://www.w3.org/2000/svg">
<mask id="mask0_507_5858" style="mask-type:alpha" maskUnits="userSpaceOnUse" x="0" y="0" width="413" height="227">
<path d="M0.5 16C0.5 7.43959 7.43959 0.5 16 0.5H397C405.56 0.5 412.5 7.43959 412.5 16V226.5H0.5V16Z" fill="white" stroke="#C5C7D0"/>
</mask>
<g mask="url(#mask0_507_5858)">
<g filter="url(#filter0_f_507_5858)">
<rect width="467.001" height="336.539" transform="matrix(-0.999995 -0.00315691 0.00206219 -0.999998 410.298 335.592)" fill="#9C36EC"/>
</g>
<g filter="url(#filter1_f_507_5858)">
<rect width="192" height="152.185" transform="matrix(-0.999995 -0.00315691 0.00206219 -0.999998 417.296 336.851)" fill="#7630A1"/>
</g>
<g filter="url(#filter2_f_507_5858)">
<rect width="191" height="152.185" transform="matrix(-0.999995 -0.00315691 0.00206219 -0.999998 189.564 206.217)" fill="#9747FF"/>
</g>
<g filter="url(#filter3_f_507_5858)">
<path d="M140.927 -89.2369C189.033 -105.241 251.406 17.4007 262.164 70.9037C272.922 124.407 242.646 180.753 194.54 196.757C146.434 212.761 72.4424 149.757 61.6841 96.2538C50.9257 42.7508 209.695 165.619 140.927 -89.2369Z" fill="#495AFF"/>
</g>
<g filter="url(#filter4_f_507_5858)">
<ellipse cx="164.853" cy="85.8738" rx="164.853" ry="85.8738" transform="matrix(-0.996263 -0.0863736 0.0588293 -0.998268 238.066 356.082)" fill="#28BEFF"/>
</g>
<g filter="url(#filter5_f_507_5858)">
<path d="M456.14 30.371L318.851 228.342C318.851 228.342 243.859 216.912 268.88 164.494C293.902 112.075 284.731 62.2358 284.731 62.2358L234.496 1.06953L456.14 30.371Z" fill="#C753D7"/>
</g>
<rect x="-21.0215" y="-15.6621" width="485" height="262" fill="#FBFCFF" fill-opacity="0.35"/>
</g>
<g clip-path="url(#clip0_507_5858)">
<path d="M225.9 131.549V105.995C225.9 103.962 225.094 102.012 223.659 100.574C222.225 99.1365 220.279 98.3288 218.25 98.3288H215.7V93.2181C215.7 90.5072 214.625 87.9073 212.713 85.9904C210.8 84.0735 208.205 82.9966 205.5 82.9966C202.795 82.9966 200.2 84.0735 198.288 85.9904C196.375 87.9073 195.3 90.5072 195.3 93.2181V98.3288H192.75C190.721 98.3288 188.775 99.1365 187.341 100.574C185.906 102.012 185.1 103.962 185.1 105.995V131.549C185.1 133.582 185.906 135.532 187.341 136.969C188.775 138.407 190.721 139.215 192.75 139.215H218.25C220.279 139.215 222.225 138.407 223.659 136.969C225.094 135.532 225.9 133.582 225.9 131.549ZM200.4 93.2181C200.4 91.8626 200.937 90.5627 201.894 89.6042C202.85 88.6458 204.147 88.1073 205.5 88.1073C206.853 88.1073 208.15 88.6458 209.106 89.6042C210.063 90.5627 210.6 91.8626 210.6 93.2181V98.3288H200.4V93.2181ZM190.2 131.549V105.995C190.2 105.317 190.469 104.667 190.947 104.188C191.425 103.709 192.074 103.44 192.75 103.44H218.25C218.926 103.44 219.575 103.709 220.053 104.188C220.531 104.667 220.8 105.317 220.8 105.995V131.549C220.8 132.226 220.531 132.876 220.053 133.356C219.575 133.835 218.926 134.104 218.25 134.104H192.75C192.074 134.104 191.425 133.835 190.947 133.356C190.469 132.876 190.2 132.226 190.2 131.549Z" fill="#323338"/>
<path d="M205.5 108.55C203.697 108.547 201.952 109.183 200.573 110.345C199.193 111.508 198.269 113.122 197.964 114.902C197.658 116.683 197.991 118.514 198.904 120.071C199.817 121.629 201.25 122.812 202.95 123.412V126.438C202.95 127.116 203.219 127.766 203.697 128.245C204.175 128.724 204.824 128.993 205.5 128.993C206.176 128.993 206.825 128.724 207.303 128.245C207.781 127.766 208.05 127.116 208.05 126.438V123.412C209.75 122.812 211.183 121.629 212.096 120.071C213.008 118.514 213.342 116.683 213.036 114.902C212.731 113.122 211.806 111.508 210.427 110.345C209.048 109.183 207.302 108.547 205.5 108.55ZM205.5 118.772C204.996 118.772 204.503 118.622 204.083 118.341C203.664 118.06 203.337 117.661 203.144 117.194C202.951 116.727 202.901 116.214 202.999 115.718C203.097 115.222 203.34 114.767 203.697 114.409C204.053 114.052 204.508 113.809 205.002 113.71C205.497 113.612 206.01 113.662 206.476 113.856C206.942 114.049 207.34 114.376 207.62 114.797C207.9 115.217 208.05 115.711 208.05 116.216C208.05 116.894 207.781 117.544 207.303 118.023C206.825 118.503 206.176 118.772 205.5 118.772Z" fill="#323338"/>
<path d="M281.26 99.7701C280.888 98.9539 280.377 98.2093 279.748 97.5699L264.907 82.6976C264.269 82.0681 263.526 81.5553 262.712 81.1823C262.656 81.1542 262.605 81.1159 262.543 81.0903C261.579 80.6651 260.537 80.4441 259.483 80.4413H229.195C225.124 77.5181 220.549 75.3755 215.7 74.1218V59.5639C215.697 58.508 215.477 57.464 215.052 56.4975C215.027 56.4361 214.989 56.385 214.96 56.3288C214.588 55.5127 214.077 54.7681 213.448 54.1286L198.615 39.2564C197.975 38.6261 197.229 38.1132 196.412 37.7411C196.356 37.7129 196.305 37.6746 196.243 37.6491C195.279 37.2238 194.237 37.0029 193.184 37H136.65C134.621 37 132.675 37.8077 131.241 39.2453C129.806 40.683 129 42.6329 129 44.6661V139.215C129 141.248 129.806 143.198 131.241 144.635C132.675 146.073 134.621 146.881 136.65 146.881H181.805C185.876 149.804 190.451 151.947 195.3 153.2V182.656C195.3 184.689 196.106 186.639 197.541 188.077C198.975 189.514 200.921 190.322 202.95 190.322H274.35C276.379 190.322 278.325 189.514 279.759 188.077C281.194 186.639 282 184.689 282 182.656V103.005C281.997 101.949 281.777 100.905 281.352 99.9387C281.327 99.8774 281.289 99.8263 281.26 99.7701ZM273.294 98.3288H264.15V89.1653L273.294 98.3288ZM169.8 113.661C169.8 106.585 171.894 99.6686 175.817 93.7854C179.739 87.9022 185.315 83.3169 191.838 80.6091C198.362 77.9014 205.54 77.1929 212.465 78.5733C219.39 79.9537 225.751 83.3609 230.744 88.3642C235.736 93.3674 239.137 99.742 240.514 106.682C241.892 113.621 241.185 120.815 238.482 127.352C235.78 133.889 231.205 139.476 225.334 143.407C219.463 147.338 212.561 149.436 205.5 149.436C196.035 149.426 186.96 145.654 180.267 138.947C173.575 132.24 169.81 123.146 169.8 113.661ZM206.994 54.8876H197.85V45.724L206.994 54.8876ZM134.1 139.215V44.6661C134.1 43.9884 134.369 43.3384 134.847 42.8592C135.325 42.38 135.974 42.1107 136.65 42.1107H192.75V54.8876C192.75 56.243 193.287 57.543 194.244 58.5014C195.2 59.4599 196.497 59.9983 197.85 59.9983H210.6V73.1304C202.254 72.0595 193.783 73.6052 186.349 77.555C178.916 81.5048 172.885 87.6648 169.087 95.1883C165.289 102.712 163.909 111.23 165.138 119.571C166.366 127.912 170.143 135.667 175.948 141.77H136.65C135.974 141.77 135.325 141.501 134.847 141.022C134.369 140.542 134.1 139.892 134.1 139.215ZM274.35 185.211H202.95C202.274 185.211 201.625 184.942 201.147 184.463C200.669 183.984 200.4 183.334 200.4 182.656V154.192C208.746 155.263 217.217 153.717 224.651 149.767C232.084 145.817 238.115 139.657 241.913 132.134C245.711 124.61 247.091 116.093 245.862 107.751C244.633 99.4102 240.857 91.6551 235.052 85.552H259.05V98.3288C259.05 99.6843 259.587 100.984 260.544 101.943C261.5 102.901 262.797 103.44 264.15 103.44H276.9V182.656C276.9 183.334 276.631 183.984 276.153 184.463C275.675 184.942 275.026 185.211 274.35 185.211Z" fill="#323338"/>
<path d="M230.253 47.9703C229.775 47.4913 229.126 47.2222 228.45 47.2222C227.774 47.2222 227.125 47.4913 226.647 47.9703L221.547 53.0811C221.069 53.5603 220.801 54.2101 220.801 54.8877C220.801 55.5653 221.069 56.2152 221.547 56.6944L226.647 61.8051C227.128 62.2706 227.772 62.5282 228.441 62.5223C229.109 62.5165 229.749 62.2478 230.222 61.774C230.695 61.3002 230.963 60.6593 230.969 59.9893C230.974 59.3193 230.717 58.6738 230.253 58.1918L229.506 57.4431H236.1C238.129 57.4431 240.075 58.2508 241.509 59.6884C242.944 61.1261 243.75 63.076 243.75 65.1092V72.7753C243.75 73.453 244.019 74.103 244.497 74.5822C244.975 75.0614 245.624 75.3307 246.3 75.3307C246.976 75.3307 247.625 75.0614 248.103 74.5822C248.581 74.103 248.85 73.453 248.85 72.7753V65.1092C248.846 61.7218 247.501 58.4743 245.111 56.0791C242.721 53.6838 239.48 52.3364 236.1 52.3324H229.506L230.253 51.5836C230.731 51.1044 230.999 50.4546 230.999 49.777C230.999 49.0994 230.731 48.4495 230.253 47.9703Z" fill="#323338"/>
<path d="M173.097 161.464C173.578 161.93 174.222 162.187 174.891 162.182C175.559 162.176 176.199 161.907 176.672 161.433C177.145 160.959 177.413 160.319 177.419 159.649C177.424 158.979 177.167 158.333 176.703 157.851L171.603 152.74C171.125 152.261 170.476 151.992 169.8 151.992C169.124 151.992 168.475 152.261 167.997 152.74L162.897 157.851C162.433 158.333 162.176 158.979 162.181 159.649C162.187 160.319 162.455 160.959 162.928 161.433C163.401 161.907 164.041 162.176 164.709 162.182C165.378 162.187 166.022 161.93 166.503 161.464L167.25 160.716V167.324C167.254 170.711 168.599 173.959 170.989 176.354C173.379 178.749 176.62 180.097 180 180.101H187.65C188.326 180.101 188.975 179.831 189.453 179.352C189.931 178.873 190.2 178.223 190.2 177.545C190.2 176.868 189.931 176.218 189.453 175.738C188.975 175.259 188.326 174.99 187.65 174.99H180C177.971 174.99 176.025 174.182 174.591 172.745C173.156 171.307 172.35 169.357 172.35 167.324V160.716L173.097 161.464Z" fill="#323338"/>
</g>
<defs>
<filter id="filter0_f_507_5858" x="-171.7" y="-117.42" width="697.693" height="568.013" filterUnits="userSpaceOnUse" color-interpolation-filters="sRGB">
<feFlood flood-opacity="0" result="BackgroundImageFix"/>
<feBlend mode="normal" in="SourceGraphic" in2="BackgroundImageFix" result="shape"/>
<feGaussianBlur stdDeviation="57.5" result="effect1_foregroundBlur_507_5858"/>
</filter>
<filter id="filter1_f_507_5858" x="110.296" y="69.0601" width="422.313" height="382.791" filterUnits="userSpaceOnUse" color-interpolation-filters="sRGB">
<feFlood flood-opacity="0" result="BackgroundImageFix"/>
<feBlend mode="normal" in="SourceGraphic" in2="BackgroundImageFix" result="shape"/>
<feGaussianBlur stdDeviation="57.5" result="effect1_foregroundBlur_507_5858"/>
</filter>
<filter id="filter2_f_507_5858" x="-116.435" y="-61.5708" width="421.313" height="382.788" filterUnits="userSpaceOnUse" color-interpolation-filters="sRGB">
<feFlood flood-opacity="0" result="BackgroundImageFix"/>
<feBlend mode="normal" in="SourceGraphic" in2="BackgroundImageFix" result="shape"/>
<feGaussianBlur stdDeviation="57.5" result="effect1_foregroundBlur_507_5858"/>
</filter>
<filter id="filter3_f_507_5858" x="-53.8413" y="-205.665" width="433.176" height="519.954" filterUnits="userSpaceOnUse" color-interpolation-filters="sRGB">
<feFlood flood-opacity="0" result="BackgroundImageFix"/>
<feBlend mode="normal" in="SourceGraphic" in2="BackgroundImageFix" result="shape"/>
<feGaussianBlur stdDeviation="57.5" result="effect1_foregroundBlur_507_5858"/>
</filter>
<filter id="filter4_f_507_5858" x="-200.436" y="54.2051" width="558.633" height="403.826" filterUnits="userSpaceOnUse" color-interpolation-filters="sRGB">
<feFlood flood-opacity="0" result="BackgroundImageFix"/>
<feBlend mode="normal" in="SourceGraphic" in2="BackgroundImageFix" result="shape"/>
<feGaussianBlur stdDeviation="57.5" result="effect1_foregroundBlur_507_5858"/>
</filter>
<filter id="filter5_f_507_5858" x="119.496" y="-113.931" width="451.643" height="457.273" filterUnits="userSpaceOnUse" color-interpolation-filters="sRGB">
<feFlood flood-opacity="0" result="BackgroundImageFix"/>
<feBlend mode="normal" in="SourceGraphic" in2="BackgroundImageFix" result="shape"/>
<feGaussianBlur stdDeviation="57.5" result="effect1_foregroundBlur_507_5858"/>
</filter>
<clipPath id="clip0_507_5858">
<rect width="153" height="191.653" fill="white" transform="translate(129 37)"/>
</clipPath>
</defs>
</svg>
