<svg width="413" height="227" viewBox="0 0 413 227" fill="none" xmlns="http://www.w3.org/2000/svg">
<mask id="mask0_496_4532" style="mask-type:alpha" maskUnits="userSpaceOnUse" x="0" y="0" width="413" height="227">
<path d="M0.5 16C0.5 7.43959 7.43959 0.5 16 0.5H397C405.56 0.5 412.5 7.43959 412.5 16V226.5H0.5V16Z" fill="white" stroke="#C5C7D0"/>
</mask>
<g mask="url(#mask0_496_4532)">
<g filter="url(#filter0_f_496_4532)">
<rect x="-11.978" y="-9.33789" width="467" height="272" fill="#B35AFA"/>
</g>
<g filter="url(#filter1_f_496_4532)">
<rect x="-18.978" y="-10.3379" width="192" height="123" fill="#770DB8"/>
</g>
<g filter="url(#filter2_f_496_4532)">
<rect x="209.022" y="94.6621" width="191" height="123" fill="#9747FF"/>
</g>
<g filter="url(#filter3_f_496_4532)">
<path d="M258.268 333.331C210.195 346.389 147.57 247.426 136.701 204.211C125.833 160.996 155.993 115.378 204.066 102.321C252.138 89.2634 326.26 139.996 337.128 183.211C347.997 226.426 188.975 127.526 258.268 333.331Z" fill="#495AFF"/>
</g>
<g filter="url(#filter4_f_496_4532)">
<ellipse cx="164.64" cy="69.4691" rx="164.64" ry="69.4691" transform="matrix(0.997729 0.0673543 -0.0701764 0.997535 160.211 -26.3379)" fill="#5DCFFF"/>
</g>
<g filter="url(#filter5_f_496_4532)">
<path d="M-57.1894 237.465L79.6905 77.1096C79.6905 77.1096 154.706 86.1561 129.793 128.586C104.879 171.016 114.153 211.274 114.153 211.274L164.514 260.581L-57.1894 237.465Z" fill="#C13FD3"/>
</g>
<rect x="-50" y="-14" width="485" height="262" fill="#FBFCFF" fill-opacity="0.05"/>
</g>
<path d="M245.737 125.814H235.175C233.439 125.814 232.026 127.223 232.026 128.959V129.015C228.519 126.605 223.012 123.412 219.05 123.906C216.081 124.284 213.197 126.463 210.416 128.575C207.696 130.636 204.887 132.764 202.6 132.764H186.822C186.298 132.764 185.803 132.82 185.336 132.901C182.807 131.417 174.244 126.428 171.509 125.258C169.316 124.319 166.848 124.84 165.378 126.546C164.024 128.119 163.341 131.033 165.521 134.548C168.671 139.628 178.243 155.065 187.462 157.907C188.969 158.373 199.246 161.438 207.755 161.438C210.757 161.438 213.538 161.054 215.64 160.04C222.689 156.629 228.951 155.591 232.028 155.277V155.784C232.028 157.517 233.439 158.929 235.178 158.929H245.74C247.476 158.929 248.89 157.52 248.89 155.784V128.956C248.884 127.223 247.473 125.814 245.737 125.814ZM213.88 156.42C209.386 158.596 197.787 156.881 188.647 154.061C183.492 152.473 176.862 145.193 168.921 132.391C167.913 130.767 168.028 129.64 168.431 129.173C168.762 128.784 169.329 128.706 169.918 128.959C171.791 129.761 177.26 132.858 181.329 135.227C180.41 136.381 179.918 137.795 179.918 139.22C179.918 141.061 180.7 142.842 182.06 144.114C183.1 145.088 184.984 146.242 188.053 146.242H206.583C207.696 146.242 208.599 145.34 208.599 144.23C208.599 143.119 207.696 142.217 206.583 142.217H188.053C186.661 142.217 185.543 141.86 184.814 141.179C184.258 140.655 183.949 139.958 183.949 139.22C183.949 138.098 184.699 136.789 186.819 136.789H202.598C206.245 136.789 209.599 134.248 212.848 131.784C215.21 129.992 217.65 128.143 219.55 127.901C222.517 127.545 228.454 131.234 232.023 134.001V151.228C228.744 151.52 221.816 152.577 213.88 156.42ZM244.853 154.907H236.057V129.839H244.853V154.907Z" fill="#323338"/>
<path d="M221.859 98.7175C226.844 98.7175 230.908 94.6657 230.908 89.6827C230.908 84.6998 226.844 80.6479 221.859 80.6479C216.868 80.6479 212.81 84.6998 212.81 89.6827C212.81 94.6657 216.865 98.7175 221.859 98.7175ZM221.859 84.6729C224.624 84.6729 226.876 86.9216 226.876 89.6827C226.876 92.4439 224.624 94.6925 221.859 94.6925C219.093 94.6925 216.841 92.4439 216.841 89.6827C216.841 86.9216 219.093 84.6729 221.859 84.6729Z" fill="#323338"/>
<path d="M174.879 99.442C175.236 99.7398 175.693 99.9035 176.166 99.9035H176.634C177.322 99.9035 177.962 99.5574 178.33 98.9751L179.674 96.8794L181.017 98.9751C181.391 99.5574 182.03 99.9035 182.719 99.9035H189.459C190.141 99.9035 190.786 99.5574 191.155 98.9751L192.498 96.8794L193.842 98.9751C194.216 99.5574 194.855 99.9035 195.543 99.9035H202.047C205.694 106.166 212.319 110.009 219.626 110.009C230.849 110.009 239.981 100.891 239.981 89.6854C239.981 78.4798 230.849 69.3618 219.626 69.3618C212.319 69.3618 205.694 73.2043 202.047 79.4672H176.169C175.696 79.4672 175.239 79.6309 174.882 79.9288L164.976 88.1371C164.513 88.5208 164.25 89.0897 164.25 89.6881C164.25 90.2864 164.513 90.8526 164.976 91.2337L174.879 99.442ZM176.889 83.4869H203.246C204.006 83.4869 204.705 83.0575 205.046 82.376C207.839 76.8322 213.423 73.3814 219.623 73.3814C228.626 73.3814 235.947 80.6935 235.947 89.68C235.947 98.6665 228.624 105.979 219.623 105.979C213.423 105.979 207.839 102.53 205.046 96.984C204.705 96.3025 204.006 95.8731 203.246 95.8731H196.642L194.197 92.0521C193.823 91.4752 193.184 91.1236 192.496 91.1236C191.808 91.1236 191.168 91.4752 190.8 92.0521L188.349 95.8731H183.818L181.372 92.0521C180.998 91.4752 180.359 91.1236 179.671 91.1236C178.988 91.1236 178.343 91.4752 177.975 92.0521L176.002 95.1325L169.421 89.6773L176.889 83.4869Z" fill="#323338"/>
<circle cx="206.5" cy="114.5" r="93.5" stroke="#5841E8" stroke-width="2"/>
<defs>
<filter id="filter0_f_496_4532" x="-126.978" y="-124.338" width="697" height="502" filterUnits="userSpaceOnUse" color-interpolation-filters="sRGB">
<feFlood flood-opacity="0" result="BackgroundImageFix"/>
<feBlend mode="normal" in="SourceGraphic" in2="BackgroundImageFix" result="shape"/>
<feGaussianBlur stdDeviation="57.5" result="effect1_foregroundBlur_496_4532"/>
</filter>
<filter id="filter1_f_496_4532" x="-133.978" y="-125.338" width="422" height="353" filterUnits="userSpaceOnUse" color-interpolation-filters="sRGB">
<feFlood flood-opacity="0" result="BackgroundImageFix"/>
<feBlend mode="normal" in="SourceGraphic" in2="BackgroundImageFix" result="shape"/>
<feGaussianBlur stdDeviation="57.5" result="effect1_foregroundBlur_496_4532"/>
</filter>
<filter id="filter2_f_496_4532" x="94.022" y="-20.3379" width="421" height="353" filterUnits="userSpaceOnUse" color-interpolation-filters="sRGB">
<feFlood flood-opacity="0" result="BackgroundImageFix"/>
<feBlend mode="normal" in="SourceGraphic" in2="BackgroundImageFix" result="shape"/>
<feGaussianBlur stdDeviation="57.5" result="effect1_foregroundBlur_496_4532"/>
</filter>
<filter id="filter3_f_496_4532" x="19.4849" y="-14.7676" width="433.179" height="464.276" filterUnits="userSpaceOnUse" color-interpolation-filters="sRGB">
<feFlood flood-opacity="0" result="BackgroundImageFix"/>
<feBlend mode="normal" in="SourceGraphic" in2="BackgroundImageFix" result="shape"/>
<feGaussianBlur stdDeviation="57.5" result="effect1_foregroundBlur_496_4532"/>
</filter>
<filter id="filter4_f_496_4532" x="40.2627" y="-131.141" width="558.679" height="370.38" filterUnits="userSpaceOnUse" color-interpolation-filters="sRGB">
<feFlood flood-opacity="0" result="BackgroundImageFix"/>
<feBlend mode="normal" in="SourceGraphic" in2="BackgroundImageFix" result="shape"/>
<feGaussianBlur stdDeviation="57.5" result="effect1_foregroundBlur_496_4532"/>
</filter>
<filter id="filter5_f_496_4532" x="-172.189" y="-37.8906" width="451.703" height="413.472" filterUnits="userSpaceOnUse" color-interpolation-filters="sRGB">
<feFlood flood-opacity="0" result="BackgroundImageFix"/>
<feBlend mode="normal" in="SourceGraphic" in2="BackgroundImageFix" result="shape"/>
<feGaussianBlur stdDeviation="57.5" result="effect1_foregroundBlur_496_4532"/>
</filter>
</defs>
</svg>
