<svg width="413" height="227" viewBox="0 0 413 227" fill="none" xmlns="http://www.w3.org/2000/svg">
<mask id="mask0_507_5858" style="mask-type:alpha" maskUnits="userSpaceOnUse" x="0" y="0" width="413" height="227">
<path d="M16 0.5H397C405.56 0.5 412.5 7.43959 412.5 16V226.5H0.5V16C0.5 7.43959 7.43959 0.5 16 0.5Z" fill="white" stroke="#C5C7D0"/>
</mask>
<g mask="url(#mask0_507_5858)">
<g filter="url(#filter0_f_507_5858)">
<rect width="467.001" height="336.539" transform="matrix(-0.999995 -0.00315691 0.00206219 -0.999998 410.298 335.592)" fill="#9C36EC"/>
</g>
<g filter="url(#filter1_f_507_5858)">
<rect width="192" height="152.185" transform="matrix(-0.999995 -0.00315691 0.00206219 -0.999998 417.296 336.851)" fill="#7630A1"/>
</g>
<g filter="url(#filter2_f_507_5858)">
<rect width="191" height="152.185" transform="matrix(-0.999995 -0.00315691 0.00206219 -0.999998 189.564 206.217)" fill="#9747FF"/>
</g>
<g filter="url(#filter3_f_507_5858)">
<path d="M140.927 -89.2369C189.033 -105.241 251.406 17.4007 262.164 70.9037C272.922 124.407 242.646 180.753 194.54 196.757C146.434 212.761 72.4424 149.757 61.6841 96.2538C50.9257 42.7508 209.695 165.619 140.927 -89.2369Z" fill="#495AFF"/>
</g>
<g filter="url(#filter4_f_507_5858)">
<ellipse cx="164.853" cy="85.8738" rx="164.853" ry="85.8738" transform="matrix(-0.996263 -0.0863736 0.0588293 -0.998268 238.066 356.082)" fill="#28BEFF"/>
</g>
<g filter="url(#filter5_f_507_5858)">
<path d="M456.14 30.371L318.851 228.342C318.851 228.342 243.859 216.912 268.88 164.494C293.902 112.075 284.731 62.2358 284.731 62.2358L234.496 1.06953L456.14 30.371Z" fill="#C753D7"/>
</g>
<rect x="-21.0215" y="-15.6621" width="485" height="262" fill="#FBFCFF" fill-opacity="0.05"/>
</g>
<circle cx="207.5" cy="114.5" r="93.5" stroke="#5841E8" stroke-width="2"/>
<g clip-path="url(#clip0_507_5858)">
<path d="M220.167 127.707V111.84C220.167 110.578 219.666 109.367 218.775 108.474C217.885 107.582 216.676 107.08 215.417 107.08H213.833V103.907C213.833 102.223 213.166 100.609 211.978 99.419C210.791 98.2287 209.18 97.5601 207.5 97.5601C205.82 97.5601 204.209 98.2287 203.022 99.419C201.834 100.609 201.167 102.223 201.167 103.907V107.08H199.583C198.323 107.08 197.115 107.582 196.224 108.474C195.334 109.367 194.833 110.578 194.833 111.84V127.707C194.833 128.969 195.334 130.18 196.224 131.073C197.115 131.965 198.323 132.467 199.583 132.467H215.417C216.676 132.467 217.885 131.965 218.775 131.073C219.666 130.18 220.167 128.969 220.167 127.707ZM204.333 103.907C204.333 103.065 204.667 102.258 205.261 101.663C205.855 101.068 206.66 100.733 207.5 100.733C208.34 100.733 209.145 101.068 209.739 101.663C210.333 102.258 210.667 103.065 210.667 103.907V107.08H204.333V103.907ZM198 127.707V111.84C198 111.419 198.167 111.016 198.464 110.718C198.761 110.421 199.163 110.253 199.583 110.253H215.417C215.837 110.253 216.239 110.421 216.536 110.718C216.833 111.016 217 111.419 217 111.84V127.707C217 128.128 216.833 128.531 216.536 128.829C216.239 129.126 215.837 129.293 215.417 129.293H199.583C199.163 129.293 198.761 129.126 198.464 128.829C198.167 128.531 198 128.128 198 127.707Z" fill="#323338"/>
<path d="M207.5 113.427C206.381 113.425 205.297 113.819 204.441 114.541C203.584 115.263 203.01 116.266 202.821 117.371C202.631 118.476 202.838 119.613 203.405 120.58C203.971 121.547 204.861 122.282 205.917 122.655V124.533C205.917 124.954 206.084 125.358 206.381 125.655C206.677 125.953 207.08 126.12 207.5 126.12C207.92 126.12 208.323 125.953 208.62 125.655C208.917 125.358 209.083 124.954 209.083 124.533V122.655C210.139 122.282 211.029 121.547 211.596 120.58C212.162 119.613 212.369 118.476 212.179 117.371C211.99 116.266 211.416 115.263 210.559 114.541C209.703 113.819 208.619 113.425 207.5 113.427ZM207.5 119.773C207.187 119.773 206.881 119.68 206.62 119.506C206.36 119.332 206.157 119.084 206.037 118.794C205.917 118.504 205.886 118.185 205.947 117.877C206.008 117.569 206.159 117.287 206.381 117.065C206.602 116.843 206.884 116.692 207.191 116.631C207.498 116.569 207.817 116.601 208.106 116.721C208.395 116.841 208.643 117.044 208.817 117.305C208.991 117.566 209.083 117.873 209.083 118.187C209.083 118.608 208.917 119.011 208.62 119.309C208.323 119.606 207.92 119.773 207.5 119.773Z" fill="#323338"/>
<path d="M254.541 107.975C254.31 107.468 253.992 107.006 253.602 106.609L244.387 97.3744C243.991 96.9835 243.529 96.665 243.024 96.4335C242.989 96.416 242.957 96.3922 242.919 96.3763C242.32 96.1123 241.673 95.9751 241.019 95.9733H222.212C219.685 94.1583 216.844 92.8279 213.833 92.0495V83.0103C213.832 82.3546 213.695 81.7064 213.431 81.1063C213.415 81.0682 213.392 81.0365 213.374 81.0015C213.143 80.4948 212.825 80.0325 212.435 79.6354L203.225 70.401C202.827 70.0097 202.364 69.6912 201.857 69.4601C201.822 69.4427 201.791 69.4189 201.753 69.403C201.154 69.139 200.507 69.0018 199.853 69H164.75C163.49 69 162.282 69.5015 161.391 70.3942C160.5 71.2868 160 72.4976 160 73.76V132.467C160 133.729 160.5 134.94 161.391 135.832C162.282 136.725 163.49 137.227 164.75 137.227H192.788C195.315 139.042 198.156 140.372 201.167 141.15V159.44C201.167 160.702 201.667 161.913 202.558 162.806C203.449 163.698 204.657 164.2 205.917 164.2H250.25C251.51 164.2 252.718 163.698 253.609 162.806C254.5 161.913 255 160.702 255 159.44V109.984C254.998 109.328 254.861 108.68 254.598 108.08C254.582 108.042 254.558 108.01 254.541 107.975ZM249.594 107.08H243.917V101.39L249.594 107.08ZM185.333 116.6C185.333 112.207 186.633 107.912 189.069 104.259C191.505 100.606 194.967 97.7588 199.017 96.0776C203.068 94.3963 207.525 93.9564 211.825 94.8135C216.124 95.6706 220.074 97.7862 223.174 100.893C226.274 103.999 228.385 107.957 229.241 112.266C230.096 116.575 229.657 121.042 227.979 125.101C226.302 129.16 223.46 132.629 219.815 135.07C216.17 137.511 211.884 138.813 207.5 138.813C201.623 138.807 195.988 136.465 191.833 132.3C187.677 128.136 185.34 122.489 185.333 116.6ZM208.428 80.1067H202.75V74.4169L208.428 80.1067ZM163.167 132.467V73.76C163.167 73.3392 163.333 72.9356 163.63 72.6381C163.927 72.3405 164.33 72.1733 164.75 72.1733H199.583V80.1067C199.583 80.9483 199.917 81.7554 200.511 82.3506C201.105 82.9457 201.91 83.28 202.75 83.28H210.667V91.4339C205.485 90.769 200.224 91.7287 195.609 94.1812C190.993 96.6337 187.249 100.459 184.891 105.13C182.532 109.801 181.676 115.09 182.439 120.269C183.201 125.449 185.546 130.264 189.151 134.053H164.75C164.33 134.053 163.927 133.886 163.63 133.589C163.333 133.291 163.167 132.887 163.167 132.467ZM250.25 161.027H205.917C205.497 161.027 205.094 160.859 204.797 160.562C204.5 160.264 204.333 159.861 204.333 159.44V141.766C209.515 142.431 214.776 141.471 219.391 139.019C224.007 136.566 227.751 132.741 230.109 128.07C232.468 123.399 233.324 118.11 232.561 112.931C231.799 107.751 229.454 102.936 225.849 99.1467H240.75V107.08C240.75 107.922 241.084 108.729 241.677 109.324C242.271 109.919 243.077 110.253 243.917 110.253H251.833V159.44C251.833 159.861 251.667 160.264 251.37 160.562C251.073 160.859 250.67 161.027 250.25 161.027Z" fill="#323338"/>
<path d="M222.869 75.8117C222.572 75.5143 222.17 75.3472 221.75 75.3472C221.33 75.3472 220.927 75.5143 220.63 75.8117L217.464 78.9851C217.167 79.2826 217 79.6861 217 80.1068C217 80.5276 217.167 80.9311 217.464 81.2286L220.63 84.4019C220.929 84.691 221.329 84.8509 221.744 84.8473C222.159 84.8437 222.556 84.6768 222.85 84.3826C223.144 84.0884 223.31 83.6905 223.314 83.2745C223.317 82.8584 223.158 82.4576 222.869 82.1584L222.405 81.6935H226.5C227.76 81.6935 228.968 82.195 229.859 83.0877C230.749 83.9803 231.25 85.1911 231.25 86.4535V91.2135C231.25 91.6343 231.417 92.0379 231.714 92.3354C232.011 92.633 232.413 92.8002 232.833 92.8002C233.253 92.8002 233.656 92.633 233.953 92.3354C234.25 92.0379 234.417 91.6343 234.417 91.2135V86.4535C234.414 84.3502 233.579 82.3338 232.095 80.8466C230.611 79.3593 228.599 78.5227 226.5 78.5202H222.405L222.869 78.0553C223.166 77.7577 223.333 77.3542 223.333 76.9335C223.333 76.5128 223.166 76.1093 222.869 75.8117Z" fill="#323338"/>
<path d="M187.381 146.282C187.679 146.571 188.079 146.731 188.494 146.727C188.909 146.724 189.307 146.557 189.6 146.262C189.894 145.968 190.06 145.57 190.064 145.154C190.067 144.738 189.908 144.338 189.619 144.038L186.453 140.865C186.156 140.567 185.753 140.4 185.333 140.4C184.913 140.4 184.511 140.567 184.214 140.865L181.047 144.038C180.759 144.338 180.599 144.738 180.603 145.154C180.606 145.57 180.773 145.968 181.067 146.262C181.36 146.557 181.757 146.724 182.172 146.727C182.588 146.731 182.987 146.571 183.286 146.282L183.75 145.817V149.92C183.753 152.023 184.587 154.04 186.072 155.527C187.556 157.014 189.568 157.851 191.667 157.853H196.417C196.837 157.853 197.239 157.686 197.536 157.389C197.833 157.091 198 156.688 198 156.267C198 155.846 197.833 155.442 197.536 155.145C197.239 154.847 196.837 154.68 196.417 154.68H191.667C190.407 154.68 189.199 154.179 188.308 153.286C187.417 152.393 186.917 151.182 186.917 149.92V145.817L187.381 146.282Z" fill="#323338"/>
</g>
<defs>
<filter id="filter0_f_507_5858" x="-171.7" y="-117.42" width="697.693" height="568.013" filterUnits="userSpaceOnUse" color-interpolation-filters="sRGB">
<feFlood flood-opacity="0" result="BackgroundImageFix"/>
<feBlend mode="normal" in="SourceGraphic" in2="BackgroundImageFix" result="shape"/>
<feGaussianBlur stdDeviation="57.5" result="effect1_foregroundBlur_507_5858"/>
</filter>
<filter id="filter1_f_507_5858" x="110.296" y="69.0601" width="422.313" height="382.791" filterUnits="userSpaceOnUse" color-interpolation-filters="sRGB">
<feFlood flood-opacity="0" result="BackgroundImageFix"/>
<feBlend mode="normal" in="SourceGraphic" in2="BackgroundImageFix" result="shape"/>
<feGaussianBlur stdDeviation="57.5" result="effect1_foregroundBlur_507_5858"/>
</filter>
<filter id="filter2_f_507_5858" x="-116.435" y="-61.5708" width="421.313" height="382.788" filterUnits="userSpaceOnUse" color-interpolation-filters="sRGB">
<feFlood flood-opacity="0" result="BackgroundImageFix"/>
<feBlend mode="normal" in="SourceGraphic" in2="BackgroundImageFix" result="shape"/>
<feGaussianBlur stdDeviation="57.5" result="effect1_foregroundBlur_507_5858"/>
</filter>
<filter id="filter3_f_507_5858" x="-53.8413" y="-205.665" width="433.176" height="519.954" filterUnits="userSpaceOnUse" color-interpolation-filters="sRGB">
<feFlood flood-opacity="0" result="BackgroundImageFix"/>
<feBlend mode="normal" in="SourceGraphic" in2="BackgroundImageFix" result="shape"/>
<feGaussianBlur stdDeviation="57.5" result="effect1_foregroundBlur_507_5858"/>
</filter>
<filter id="filter4_f_507_5858" x="-200.436" y="54.2051" width="558.633" height="403.826" filterUnits="userSpaceOnUse" color-interpolation-filters="sRGB">
<feFlood flood-opacity="0" result="BackgroundImageFix"/>
<feBlend mode="normal" in="SourceGraphic" in2="BackgroundImageFix" result="shape"/>
<feGaussianBlur stdDeviation="57.5" result="effect1_foregroundBlur_507_5858"/>
</filter>
<filter id="filter5_f_507_5858" x="119.496" y="-113.931" width="451.643" height="457.273" filterUnits="userSpaceOnUse" color-interpolation-filters="sRGB">
<feFlood flood-opacity="0" result="BackgroundImageFix"/>
<feBlend mode="normal" in="SourceGraphic" in2="BackgroundImageFix" result="shape"/>
<feGaussianBlur stdDeviation="57.5" result="effect1_foregroundBlur_507_5858"/>
</filter>
<clipPath id="clip0_507_5858">
<rect width="95" height="119" fill="white" transform="translate(160 69)"/>
</clipPath>
</defs>
</svg>
