<svg width="56" height="56" viewBox="0 0 56 56" fill="none" xmlns="http://www.w3.org/2000/svg">
<path d="M27.9998 51.3337C15.1128 51.3337 4.6665 40.8873 4.6665 28.0003C4.6665 15.1133 15.1128 4.66699 27.9998 4.66699C40.8868 4.66699 51.3332 15.1133 51.3332 28.0003C51.3332 40.8873 40.8868 51.3337 27.9998 51.3337ZM25.6665 35.0003V39.667H30.3332V35.0003H25.6665ZM30.3332 31.162C32.2084 30.5968 33.8183 29.3769 34.8695 27.7244C35.9208 26.0719 36.3436 24.0968 36.0609 22.1587C35.7782 20.2207 34.8088 18.4487 33.3292 17.1654C31.8496 15.8821 29.9584 15.1729 27.9998 15.167C26.1118 15.1668 24.2821 15.8207 22.8217 17.0173C21.3613 18.2139 20.3605 19.8795 19.9895 21.7307L24.5675 22.6477C24.6974 21.9977 25.0092 21.3979 25.4667 20.9182C25.9241 20.4385 26.5084 20.0986 27.1515 19.938C27.7946 19.7774 28.4701 19.8026 29.0994 20.0109C29.7286 20.2192 30.2858 20.6019 30.7061 21.1145C31.1264 21.627 31.3925 22.2484 31.4734 22.9063C31.5544 23.5642 31.4468 24.2315 31.1633 24.8307C30.8798 25.4298 30.432 25.9362 29.8719 26.2908C29.3119 26.6453 28.6627 26.8336 27.9998 26.8337C27.381 26.8337 26.7875 27.0795 26.3499 27.5171C25.9123 27.9547 25.6665 28.5482 25.6665 29.167V32.667H30.3332V31.162Z" fill="#DCDFEC"/>
</svg>
