<svg width="50" height="50" viewBox="0 0 50 50" fill="none" xmlns="http://www.w3.org/2000/svg">
<path d="M16.0565 11.0272C15.2429 10.2136 13.9238 10.2136 13.1102 11.0272C12.2966 11.8408 12.2966 13.1599 13.1102 13.9735L23.5269 24.3901C24.3405 25.2037 25.6595 25.2037 26.4731 24.3901L36.8898 13.9735C37.7034 13.1599 37.7034 11.8408 36.8898 11.0272C36.0762 10.2136 34.7571 10.2136 33.9435 11.0272L25 19.9707L16.0565 11.0272Z" fill="#2D3648"/>
<path d="M16.0565 25.6105C15.2429 24.7969 13.9238 24.7969 13.1102 25.6105C12.2966 26.4241 12.2966 27.7432 13.1102 28.5568L23.5269 38.9735C24.3405 39.7871 25.6595 39.7871 26.4731 38.9735L36.8898 28.5568C37.7034 27.7432 37.7034 26.4241 36.8898 25.6105C36.0762 24.7969 34.7571 24.7969 33.9435 25.6105L25 34.554L16.0565 25.6105Z" fill="#2D3648"/>
</svg>
