<svg width="22" height="22" viewBox="0 0 22 22" fill="none" xmlns="http://www.w3.org/2000/svg">
<path fill-rule="evenodd" clip-rule="evenodd" d="M5.08741 5.08789C6.92074 3.25456 9.40726 2.22461 12 2.22461C14.5927 2.22461 17.0792 3.25456 18.9126 5.08789C20.7459 6.92122 21.7758 9.40775 21.7758 12.0005C21.7758 14.5932 20.7459 17.0797 18.9126 18.9131C17.0792 20.7464 14.5927 21.7763 12 21.7763C9.40726 21.7763 6.92074 20.7464 5.08741 18.9131C3.25408 17.0797 2.22412 14.5932 2.22412 12.0005C2.22412 9.40775 3.25408 6.92122 5.08741 5.08789ZM12 3.72461C9.80509 3.72461 7.70009 4.59653 6.14807 6.14855C4.59604 7.70058 3.72412 9.80558 3.72412 12.0005C3.72412 14.1954 4.59604 16.3004 6.14807 17.8524C7.70009 19.4044 9.80509 20.2763 12 20.2763C14.1949 20.2763 16.2999 19.4044 17.8519 17.8524C19.4039 16.3004 20.2758 14.1954 20.2758 12.0005C20.2758 9.80558 19.4039 7.70058 17.8519 6.14855C16.2999 4.59653 14.1949 3.72461 12 3.72461ZM12 11.2505C12.4142 11.2505 12.75 11.5863 12.75 12.0005V16.5134C12.75 16.9277 12.4142 17.2634 12 17.2634C11.5858 17.2634 11.25 16.9277 11.25 16.5134V12.0005C11.25 11.5863 11.5858 11.2505 12 11.2505ZM11.5288 7.27284C11.7055 7.15475 11.9133 7.09171 12.1259 7.09171C12.4109 7.09171 12.6843 7.20494 12.8858 7.40649C13.0874 7.60804 13.2006 7.8814 13.2006 8.16643C13.2006 8.37898 13.1376 8.58677 13.0195 8.76351C12.9014 8.94024 12.7335 9.07799 12.5371 9.15933C12.3408 9.24067 12.1247 9.26196 11.9162 9.22049C11.7077 9.17902 11.5162 9.07667 11.3659 8.92636C11.2156 8.77606 11.1133 8.58456 11.0718 8.37609C11.0303 8.16762 11.0516 7.95153 11.133 7.75515C11.2143 7.55878 11.352 7.39093 11.5288 7.27284Z" fill="#676879"/>
</svg>
