<svg width="38" height="41" viewBox="0 0 38 41" fill="none" xmlns="http://www.w3.org/2000/svg">
<path fill-rule="evenodd" clip-rule="evenodd" d="M32.9831 5.83978C32.9465 5.75935 32.8951 5.68419 32.829 5.61855C32.703 5.49325 32.5327 5.41244 32.3437 5.40163C32.3292 5.4008 32.3147 5.40039 32.3002 5.40039C32.2995 5.40039 32.2988 5.40039 32.2981 5.40039H25.1387C24.7245 5.40039 24.3887 5.73618 24.3887 6.15039C24.3887 6.56461 24.7245 6.90039 25.1387 6.90039H30.5825L18.4501 19.9906C18.1686 20.2944 18.1866 20.7689 18.4904 21.0505C18.7942 21.332 19.2687 21.314 19.5503 21.0102L31.5502 8.06291V13.8773C31.5502 14.2915 31.886 14.6273 32.3002 14.6273C32.7144 14.6273 33.0502 14.2915 33.0502 13.8773V6.15039C33.0502 6.0396 33.0262 5.93443 32.9831 5.83978ZM7.74635 6.90039C7.42177 6.90039 7.09782 7.03899 6.84957 7.30683C6.59955 7.5766 6.4502 7.95387 6.4502 8.35808V32.6427C6.4502 33.0469 6.59955 33.4242 6.84957 33.6939C7.09782 33.9618 7.42177 34.1004 7.74635 34.1004H30.254C30.5786 34.1004 30.9026 33.9618 31.1508 33.6939C31.4008 33.4242 31.5502 33.0469 31.5502 32.6427V22.7081C31.5502 22.2939 31.886 21.9581 32.3002 21.9581C32.7144 21.9581 33.0502 22.2939 33.0502 22.7081V32.6427C33.0502 33.4095 32.7684 34.1553 32.251 34.7136C31.7318 35.2738 31.0148 35.6004 30.254 35.6004H7.74635C6.98558 35.6004 6.26864 35.2738 5.74943 34.7136C5.23199 34.1553 4.9502 33.4095 4.9502 32.6427V8.35808C4.9502 7.59127 5.23199 6.84547 5.74943 6.28719C6.26864 5.72698 6.98558 5.40039 7.74635 5.40039H16.954C17.3683 5.40039 17.704 5.73618 17.704 6.15039C17.704 6.56461 17.3683 6.90039 16.954 6.90039H7.74635Z" fill="#676879"/>
</svg>
