<svg width="197" height="60" viewBox="0 0 197 60" fill="none" xmlns="http://www.w3.org/2000/svg">
<path d="M3.456 50V14.24H16.8C19.232 14.24 21.376 14.688 23.232 15.584C25.12 16.448 26.592 17.728 27.648 19.424C28.704 21.088 29.232 23.12 29.232 25.52C29.232 27.888 28.688 29.92 27.6 31.616C26.544 33.28 25.088 34.56 23.232 35.456C21.376 36.352 19.232 36.8 16.8 36.8H9.984V50H3.456ZM9.984 31.04H16.896C18.08 31.04 19.104 30.816 19.968 30.368C20.832 29.888 21.504 29.232 21.984 28.4C22.464 27.568 22.704 26.608 22.704 25.52C22.704 24.4 22.464 23.44 21.984 22.64C21.504 21.808 20.832 21.168 19.968 20.72C19.104 20.24 18.08 20 16.896 20H9.984V31.04ZM45.8835 50.576C43.3235 50.576 40.9875 49.984 38.8755 48.8C36.7955 47.616 35.1315 46 33.8835 43.952C32.6675 41.904 32.0595 39.568 32.0595 36.944C32.0595 34.32 32.6675 31.984 33.8835 29.936C35.1315 27.888 36.7955 26.272 38.8755 25.088C40.9555 23.904 43.2915 23.312 45.8835 23.312C48.4435 23.312 50.7635 23.904 52.8435 25.088C54.9235 26.272 56.5715 27.888 57.7875 29.936C59.0355 31.952 59.6595 34.288 59.6595 36.944C59.6595 39.568 59.0355 41.904 57.7875 43.952C56.5395 46 54.8755 47.616 52.7955 48.8C50.7155 49.984 48.4115 50.576 45.8835 50.576ZM45.8835 44.816C47.2915 44.816 48.5235 44.48 49.5795 43.808C50.6675 43.136 51.5155 42.208 52.1235 41.024C52.7635 39.808 53.0835 38.448 53.0835 36.944C53.0835 35.408 52.7635 34.064 52.1235 32.912C51.5155 31.728 50.6675 30.8 49.5795 30.128C48.5235 29.424 47.2915 29.072 45.8835 29.072C44.4435 29.072 43.1795 29.424 42.0915 30.128C41.0035 30.8 40.1395 31.728 39.4995 32.912C38.8915 34.064 38.5875 35.408 38.5875 36.944C38.5875 38.448 38.8915 39.808 39.4995 41.024C40.1395 42.208 41.0035 43.136 42.0915 43.808C43.1795 44.48 44.4435 44.816 45.8835 44.816ZM76.572 50.576C74.044 50.576 71.788 49.984 69.804 48.8C67.82 47.584 66.252 45.936 65.1 43.856C63.948 41.776 63.372 39.472 63.372 36.944C63.372 34.384 63.948 32.08 65.1 30.032C66.252 27.984 67.82 26.352 69.804 25.136C71.82 23.92 74.06 23.312 76.524 23.312C78.508 23.312 80.268 23.712 81.804 24.512C83.372 25.28 84.604 26.368 85.5 27.776L84.54 29.072V13.664H90.828V50H84.876V44.96L85.548 46.208C84.652 47.616 83.404 48.704 81.804 49.472C80.204 50.208 78.46 50.576 76.572 50.576ZM77.244 44.816C78.684 44.816 79.948 44.48 81.036 43.808C82.124 43.136 82.972 42.208 83.58 41.024C84.22 39.84 84.54 38.48 84.54 36.944C84.54 35.44 84.22 34.096 83.58 32.912C82.972 31.696 82.124 30.752 81.036 30.08C79.948 29.408 78.684 29.072 77.244 29.072C75.836 29.072 74.572 29.424 73.452 30.128C72.332 30.8 71.452 31.728 70.812 32.912C70.204 34.064 69.9 35.408 69.9 36.944C69.9 38.48 70.204 39.84 70.812 41.024C71.452 42.208 72.332 43.136 73.452 43.808C74.572 44.48 75.836 44.816 77.244 44.816ZM97.206 50V14.24H112.278C114.646 14.24 116.662 14.656 118.326 15.488C120.022 16.288 121.318 17.44 122.214 18.944C123.142 20.416 123.606 22.208 123.606 24.32C123.606 25.952 123.158 27.488 122.262 28.928C121.398 30.336 120.006 31.504 118.086 32.432V29.408C119.846 30.08 121.238 30.912 122.262 31.904C123.286 32.896 124.006 34 124.422 35.216C124.838 36.432 125.046 37.712 125.046 39.056C125.046 42.48 123.91 45.168 121.638 47.12C119.398 49.04 116.278 50 112.278 50H97.206ZM103.734 44.24H112.95C114.646 44.24 115.99 43.776 116.982 42.848C118.006 41.888 118.518 40.624 118.518 39.056C118.518 37.488 118.006 36.224 116.982 35.264C115.99 34.304 114.646 33.824 112.95 33.824H103.734V44.24ZM103.734 28.112H112.614C113.958 28.112 115.03 27.728 115.83 26.96C116.63 26.16 117.03 25.136 117.03 23.888C117.03 22.64 116.63 21.648 115.83 20.912C115.03 20.176 113.958 19.808 112.614 19.808H103.734V28.112ZM142.634 50.576C140.074 50.576 137.738 49.984 135.626 48.8C133.546 47.616 131.882 46 130.634 43.952C129.418 41.904 128.81 39.568 128.81 36.944C128.81 34.32 129.418 31.984 130.634 29.936C131.882 27.888 133.546 26.272 135.626 25.088C137.706 23.904 140.042 23.312 142.634 23.312C145.194 23.312 147.514 23.904 149.594 25.088C151.674 26.272 153.322 27.888 154.538 29.936C155.786 31.952 156.41 34.288 156.41 36.944C156.41 39.568 155.786 41.904 154.538 43.952C153.29 46 151.626 47.616 149.546 48.8C147.466 49.984 145.162 50.576 142.634 50.576ZM142.634 44.816C144.042 44.816 145.274 44.48 146.33 43.808C147.418 43.136 148.266 42.208 148.874 41.024C149.514 39.808 149.834 38.448 149.834 36.944C149.834 35.408 149.514 34.064 148.874 32.912C148.266 31.728 147.418 30.8 146.33 30.128C145.274 29.424 144.042 29.072 142.634 29.072C141.194 29.072 139.93 29.424 138.842 30.128C137.754 30.8 136.89 31.728 136.25 32.912C135.642 34.064 135.338 35.408 135.338 36.944C135.338 38.448 135.642 39.808 136.25 41.024C136.89 42.208 137.754 43.136 138.842 43.808C139.93 44.48 141.194 44.816 142.634 44.816ZM157.889 50L167.009 36.896L157.841 23.888H165.233L172.385 34.448H169.073L176.225 23.888H183.569L174.449 36.896L183.521 50H176.177L169.121 39.488H172.337L165.281 50H157.889Z" fill="#5A3FE6"/>
<mask id="mask0_448_2676" style="mask-type:alpha" maskUnits="userSpaceOnUse" x="190" y="44" width="7" height="7">
<circle cx="193.5" cy="47.5" r="3.5" fill="#D9D9D9"/>
</mask>
<g mask="url(#mask0_448_2676)">
<path d="M193.116 33.7334L174.6 47.3098L193.901 62.2001L212.866 47.3098L193.116 33.7334Z" fill="url(#paint0_linear_448_2676)"/>
</g>
<defs>
<linearGradient id="paint0_linear_448_2676" x1="190.116" y1="36.8089" x2="192.544" y2="62.3133" gradientUnits="userSpaceOnUse">
<stop offset="0.116568" stop-color="#9321ED"/>
<stop offset="0.576" stop-color="#4166E7"/>
<stop offset="1" stop-color="#546EC7"/>
</linearGradient>
</defs>
</svg>
