<svg width="102" height="82" viewBox="0 0 102 82" fill="none" xmlns="http://www.w3.org/2000/svg">
<mask id="mask0_294_2712" style="mask-type:alpha" maskUnits="userSpaceOnUse" x="0" y="0" width="101" height="82">
<path fill-rule="evenodd" clip-rule="evenodd" d="M36.5383 2.18842C38.8831 -0.153057 42.6821 -0.150348 45.0235 2.19447L67.942 25.1456C67.856 30.9839 61.5706 36.3592 56.2499 33.1686L46.114 23.0183C43.7725 20.6735 39.9735 20.6708 37.6287 23.0123L22.9862 37.634C20.6414 39.9754 20.6387 43.7744 22.9801 46.1192L36.3376 59.4958C38.6791 61.8406 42.4781 61.8433 44.8229 59.5018L56.3011 48.04C62.3411 46.7049 66.4089 53.199 67.0739 57.2446L44.9686 79.3184C42.6237 81.6599 38.8248 81.6572 36.4833 79.3124L2.18842 44.9686C-0.153057 42.6237 -0.150348 38.8248 2.19447 36.4833L36.5383 2.18842Z" fill="#4166E7"/>
<path d="M81.8167 15.9733C80.7405 14.7434 80.7666 12.7947 81.8754 11.5904L88.5316 4.3607C89.6202 3.17828 91.3642 3.13745 92.4899 4.26805L99.7071 11.5171C100.918 12.7333 100.938 14.8164 99.7512 16.0707L92.5522 23.6785C91.4084 24.8873 89.5865 24.8523 88.4911 23.6005L81.8167 15.9733Z" fill="#F50000"/>
<path d="M60.1462 15.5021C58.8355 14.2484 58.8516 12.0118 60.1802 10.7693L67.3811 4.03541C68.4754 3.01212 70.0911 3.03055 71.1581 4.07849L78.5857 11.3735C79.997 12.7596 79.798 15.2413 78.1864 16.3509L70.0214 21.9727C68.9481 22.7117 67.5607 22.5947 66.6097 21.685L60.1462 15.5021Z" fill="#F50000"/>
<path d="M77.0762 10.03C80.7515 12.4803 82.2648 10.6787 85.0755 8.7329L85.0755 19.6107C85.0369 19.966 84.224 16.9451 80.7142 16.341C77.7179 15.8253 76.9195 17.5649 75.7623 15.3506C74.6052 13.1364 73.4008 7.57977 77.0762 10.03Z" fill="#F50000"/>
<path fill-rule="evenodd" clip-rule="evenodd" d="M63.0069 35.7111C59.8074 38.7581 59.6946 43.8115 62.755 46.9982L70.2457 54.7981C73.3061 57.9849 78.3808 58.0981 81.5803 55.0512L89.4153 47.5898C92.6148 44.5428 92.7276 39.4894 89.6672 36.3027L82.1765 28.5028C79.1161 25.3161 74.0415 25.2028 70.8419 28.2498L63.0069 35.7111ZM76.2578 44.5666C78.4457 44.5666 80.2193 42.793 80.2193 40.6051C80.2193 38.4173 78.4457 36.6437 76.2578 36.6437C74.07 36.6437 72.2964 38.4173 72.2964 40.6051C72.2964 42.793 74.07 44.5666 76.2578 44.5666Z" fill="#F50000"/>
<path d="M78.2382 16.3408C78.2382 16.3408 65.7002 20.5283 66.3091 21.3403C66.918 22.1522 70.9012 24.7072 70.6082 26.9614C70.3153 29.2155 66.849 32.1866 66.849 32.1866C66.849 32.1866 82.6952 34.1881 82.6952 29.2155C80.8512 26.5179 77.6139 24.2637 76.2579 21.7878C74.9018 19.3119 78.2382 16.3408 78.2382 16.3408Z" fill="#F50000"/>
<path d="M37.1696 37.1387H61.8833C62.7117 37.1387 63.3833 37.8102 63.3833 38.6387V44.0568C63.3833 44.8852 62.7117 45.5568 61.8833 45.5568H50.9893C50.6766 45.5568 50.3718 45.4591 50.1174 45.2774L47.3564 43.3052C47.1714 43.1731 46.9204 43.1824 46.7457 43.328L44.3493 45.325C44.1834 45.4633 43.9474 45.4794 43.7642 45.3649L40.447 43.2917C40.2496 43.1683 39.9931 43.1975 39.8285 43.3621L37.9405 45.2501C37.7645 45.4261 37.486 45.4459 37.2869 45.2966L32.7243 41.8746C32.2014 41.4824 32.1892 40.7021 32.6996 40.2938L36.2326 37.4674C36.4986 37.2546 36.829 37.1387 37.1696 37.1387Z" fill="#495AFF"/>
</mask>
<g mask="url(#mask0_294_2712)">
<path d="M57.2777 -19.0884L-25.5742 38.0339L60.7926 100.684L145.653 38.0339L57.2777 -19.0884Z" fill="#5841E8"/>
</g>
</svg>
