<svg width="101" height="80" viewBox="0 0 101 80" fill="none" xmlns="http://www.w3.org/2000/svg">
<mask id="mask0_448_2658" style="mask-type:alpha" maskUnits="userSpaceOnUse" x="0" y="0" width="99" height="80">
<path fill-rule="evenodd" clip-rule="evenodd" d="M35.7844 2.2265C38.1292 -0.114971 41.9282 -0.112262 44.2696 2.23255L66.686 24.6809C66.6015 30.4112 60.4324 35.6871 55.21 32.5555L45.34 22.6714C42.9985 20.3266 39.1995 20.3239 36.8547 22.6653L22.6399 36.8599C20.295 39.2014 20.2923 43.0004 22.6338 45.3452L35.5875 58.3174C37.929 60.6622 41.728 60.6649 44.0728 58.3234L55.2603 47.1519C61.1886 45.8415 65.1812 52.2155 65.8339 56.1863L44.2158 77.7736C41.871 80.1151 38.072 80.1124 35.7305 77.7676L2.2265 44.2158C-0.114971 41.871 -0.112262 38.072 2.23255 35.7305L35.7844 2.2265Z" fill="#4166E7"/>
<path d="M80.3399 15.7186C79.2637 14.4888 79.2898 12.54 80.3986 11.3357L86.8588 4.31886C87.9474 3.13643 89.6915 3.09561 90.8171 4.22621L97.8224 11.2624C99.0332 12.4786 99.0534 14.5617 97.8665 15.816L90.8794 23.1998C89.7356 24.4086 87.9137 24.3737 86.8183 23.1219L80.3399 15.7186Z" fill="#F50000"/>
<path d="M59.0802 15.259C57.7696 14.0052 57.7857 11.7686 59.1143 10.5261L66.1001 3.99337C67.1944 2.97008 68.8101 2.98851 69.8771 4.03644L77.0808 11.1116C78.4922 12.4977 78.2931 14.9794 76.6816 16.089L68.7604 21.5429C67.6871 22.2819 66.2997 22.165 65.3487 21.2552L59.0802 15.259Z" fill="#F50000"/>
<path d="M75.6513 9.8445C79.2586 12.2495 80.744 10.4812 83.5027 8.57136L83.5027 19.248C83.4648 19.5967 82.6669 16.6317 79.222 16.0388C76.2811 15.5327 75.4975 17.2401 74.3617 15.0667C73.226 12.8934 72.0439 7.43955 75.6513 9.8445Z" fill="#F50000"/>
<path fill-rule="evenodd" clip-rule="evenodd" d="M61.9491 34.9483C58.7495 37.9952 58.6367 43.0486 61.6971 46.2354L68.8444 53.6777C71.9048 56.8644 76.9795 56.9777 80.179 53.9307L87.6549 46.8113C90.8545 43.7644 90.9673 38.7109 87.9069 35.5242L80.7596 28.0819C77.6992 24.8952 72.6245 24.7819 69.425 27.8289L61.9491 34.9483ZM74.8478 43.742C76.9952 43.742 78.736 42.0012 78.736 39.8538C78.736 37.7064 76.9952 35.9656 74.8478 35.9656C72.7004 35.9656 70.9596 37.7064 70.9596 39.8538C70.9596 42.0012 72.7004 43.742 74.8478 43.742Z" fill="#F50000"/>
<path d="M76.7917 16.0386C76.7917 16.0386 64.4854 20.1487 65.0831 20.9456C65.6807 21.7425 69.5903 24.2502 69.3028 26.4627C69.0152 28.6753 65.6131 31.5914 65.6131 31.5914C65.6131 31.5914 81.1663 33.5558 81.1663 28.6753C79.3563 26.0275 76.1789 23.815 74.8479 21.3849C73.517 18.9547 76.7917 16.0386 76.7917 16.0386Z" fill="#F50000"/>
<path d="M36.4924 36.4521H60.7116C61.5401 36.4521 62.2116 37.1237 62.2116 37.9521V43.2146C62.2116 44.043 61.5401 44.7146 60.7116 44.7146H50.0557C49.743 44.7146 49.4382 44.6169 49.1838 44.4352L46.4869 42.5088C46.3019 42.3767 46.0509 42.386 45.8762 42.5316L43.5347 44.4828C43.3688 44.6211 43.1328 44.6372 42.9496 44.5227L39.7057 42.4953C39.5083 42.3719 39.2518 42.4011 39.0871 42.5657L37.2449 44.408C37.069 44.5839 36.7904 44.6037 36.5914 44.4544L32.1386 41.1149C31.6157 40.7226 31.6035 39.9423 32.1139 39.534L35.5553 36.7808C35.8213 36.5681 36.1518 36.4521 36.4924 36.4521Z" fill="#495AFF"/>
</mask>
<g mask="url(#mask0_448_2658)">
<path d="M56.2189 -18.7354L-25.1011 37.3308L59.6689 98.8227L142.96 37.3308L56.2189 -18.7354Z" fill="url(#paint0_linear_448_2658)"/>
</g>
<defs>
<linearGradient id="paint0_linear_448_2658" x1="39.3681" y1="2.43029" x2="33.7206" y2="78.877" gradientUnits="userSpaceOnUse">
<stop offset="0.202075" stop-color="#495AFF"/>
<stop offset="1" stop-color="#770DB8"/>
</linearGradient>
</defs>
</svg>
