<svg width="400" height="24" viewBox="0 0 400 24" fill="none" xmlns="http://www.w3.org/2000/svg">
<path d="M43.024 16.668H47.416V18H41.386V5.454H43.024V16.668ZM58.0655 12.69C58.0655 13.002 58.0475 13.332 58.0115 13.68H50.1275C50.1875 14.652 50.5175 15.414 51.1175 15.966C51.7295 16.506 52.4675 16.776 53.3315 16.776C54.0395 16.776 54.6275 16.614 55.0955 16.29C55.5755 15.954 55.9115 15.51 56.1035 14.958H57.8675C57.6035 15.906 57.0755 16.68 56.2835 17.28C55.4915 17.868 54.5075 18.162 53.3315 18.162C52.3955 18.162 51.5555 17.952 50.8115 17.532C50.0795 17.112 49.5035 16.518 49.0835 15.75C48.6635 14.97 48.4535 14.07 48.4535 13.05C48.4535 12.03 48.6575 11.136 49.0655 10.368C49.4735 9.6 50.0435 9.012 50.7755 8.604C51.5195 8.184 52.3715 7.974 53.3315 7.974C54.2675 7.974 55.0955 8.178 55.8155 8.586C56.5355 8.994 57.0875 9.558 57.4715 10.278C57.8675 10.986 58.0655 11.79 58.0655 12.69ZM56.3735 12.348C56.3735 11.724 56.2355 11.19 55.9595 10.746C55.6835 10.29 55.3055 9.948 54.8255 9.72C54.3575 9.48 53.8355 9.36 53.2595 9.36C52.4315 9.36 51.7235 9.624 51.1355 10.152C50.5595 10.68 50.2295 11.412 50.1455 12.348H56.3735ZM59.5256 13.032C59.5256 12.024 59.7296 11.142 60.1376 10.386C60.5456 9.618 61.1036 9.024 61.8116 8.604C62.5316 8.184 63.3296 7.974 64.2056 7.974C65.0696 7.974 65.8196 8.16 66.4556 8.532C67.0916 8.904 67.5656 9.372 67.8776 9.936V8.136H69.5336V18H67.8776V16.164C67.5536 16.74 67.0676 17.22 66.4196 17.604C65.7836 17.976 65.0396 18.162 64.1876 18.162C63.3116 18.162 62.5196 17.946 61.8116 17.514C61.1036 17.082 60.5456 16.476 60.1376 15.696C59.7296 14.916 59.5256 14.028 59.5256 13.032ZM67.8776 13.05C67.8776 12.306 67.7276 11.658 67.4276 11.106C67.1276 10.554 66.7196 10.134 66.2036 9.846C65.6996 9.546 65.1416 9.396 64.5296 9.396C63.9176 9.396 63.3596 9.54 62.8556 9.828C62.3516 10.116 61.9496 10.536 61.6496 11.088C61.3496 11.64 61.1996 12.288 61.1996 13.032C61.1996 13.788 61.3496 14.448 61.6496 15.012C61.9496 15.564 62.3516 15.99 62.8556 16.29C63.3596 16.578 63.9176 16.722 64.5296 16.722C65.1416 16.722 65.6996 16.578 66.2036 16.29C66.7196 15.99 67.1276 15.564 67.4276 15.012C67.7276 14.448 67.8776 13.794 67.8776 13.05ZM73.8497 9.738C74.1377 9.174 74.5457 8.736 75.0737 8.424C75.6137 8.112 76.2677 7.956 77.0357 7.956V9.648H76.6037C74.7677 9.648 73.8497 10.644 73.8497 12.636V18H72.2117V8.136H73.8497V9.738ZM83.6425 7.956C84.8425 7.956 85.8145 8.322 86.5585 9.054C87.3025 9.774 87.6745 10.818 87.6745 12.186V18H86.0545V12.42C86.0545 11.436 85.8085 10.686 85.3165 10.17C84.8245 9.642 84.1525 9.378 83.3005 9.378C82.4365 9.378 81.7465 9.648 81.2305 10.188C80.7265 10.728 80.4745 11.514 80.4745 12.546V18H78.8365V8.136H80.4745V9.54C80.7985 9.036 81.2365 8.646 81.7885 8.37C82.3525 8.094 82.9705 7.956 83.6425 7.956ZM106.831 7.956C107.599 7.956 108.283 8.118 108.883 8.442C109.483 8.754 109.957 9.228 110.305 9.864C110.653 10.5 110.827 11.274 110.827 12.186V18H109.207V12.42C109.207 11.436 108.961 10.686 108.469 10.17C107.989 9.642 107.335 9.378 106.507 9.378C105.655 9.378 104.977 9.654 104.473 10.206C103.969 10.746 103.717 11.532 103.717 12.564V18H102.097V12.42C102.097 11.436 101.851 10.686 101.359 10.17C100.879 9.642 100.225 9.378 99.397 9.378C98.545 9.378 97.867 9.654 97.363 10.206C96.859 10.746 96.607 11.532 96.607 12.564V18H94.969V8.136H96.607V9.558C96.931 9.042 97.363 8.646 97.903 8.37C98.455 8.094 99.061 7.956 99.721 7.956C100.549 7.956 101.281 8.142 101.917 8.514C102.553 8.886 103.027 9.432 103.339 10.152C103.615 9.456 104.071 8.916 104.707 8.532C105.343 8.148 106.051 7.956 106.831 7.956ZM117.726 18.162C116.802 18.162 115.962 17.952 115.206 17.532C114.462 17.112 113.874 16.518 113.442 15.75C113.022 14.97 112.812 14.07 112.812 13.05C112.812 12.042 113.028 11.154 113.46 10.386C113.904 9.606 114.504 9.012 115.26 8.604C116.016 8.184 116.862 7.974 117.798 7.974C118.734 7.974 119.58 8.184 120.336 8.604C121.092 9.012 121.686 9.6 122.118 10.368C122.562 11.136 122.784 12.03 122.784 13.05C122.784 14.07 122.556 14.97 122.1 15.75C121.656 16.518 121.05 17.112 120.282 17.532C119.514 17.952 118.662 18.162 117.726 18.162ZM117.726 16.722C118.314 16.722 118.866 16.584 119.382 16.308C119.898 16.032 120.312 15.618 120.624 15.066C120.948 14.514 121.11 13.842 121.11 13.05C121.11 12.258 120.954 11.586 120.642 11.034C120.33 10.482 119.922 10.074 119.418 9.81C118.914 9.534 118.368 9.396 117.78 9.396C117.18 9.396 116.628 9.534 116.124 9.81C115.632 10.074 115.236 10.482 114.936 11.034C114.636 11.586 114.486 12.258 114.486 13.05C114.486 13.854 114.63 14.532 114.918 15.084C115.218 15.636 115.614 16.05 116.106 16.326C116.598 16.59 117.138 16.722 117.726 16.722ZM126.486 9.738C126.774 9.174 127.182 8.736 127.71 8.424C128.25 8.112 128.904 7.956 129.672 7.956V9.648H129.24C127.404 9.648 126.486 10.644 126.486 12.636V18H124.848V8.136H126.486V9.738ZM140.472 12.69C140.472 13.002 140.454 13.332 140.418 13.68H132.534C132.594 14.652 132.924 15.414 133.524 15.966C134.136 16.506 134.874 16.776 135.738 16.776C136.446 16.776 137.034 16.614 137.502 16.29C137.982 15.954 138.318 15.51 138.51 14.958H140.274C140.01 15.906 139.482 16.68 138.69 17.28C137.898 17.868 136.914 18.162 135.738 18.162C134.802 18.162 133.962 17.952 133.218 17.532C132.486 17.112 131.91 16.518 131.49 15.75C131.07 14.97 130.86 14.07 130.86 13.05C130.86 12.03 131.064 11.136 131.472 10.368C131.88 9.6 132.45 9.012 133.182 8.604C133.926 8.184 134.778 7.974 135.738 7.974C136.674 7.974 137.502 8.178 138.222 8.586C138.942 8.994 139.494 9.558 139.878 10.278C140.274 10.986 140.472 11.79 140.472 12.69ZM138.78 12.348C138.78 11.724 138.642 11.19 138.366 10.746C138.09 10.29 137.712 9.948 137.232 9.72C136.764 9.48 136.242 9.36 135.666 9.36C134.838 9.36 134.13 9.624 133.542 10.152C132.966 10.68 132.636 11.412 132.552 12.348H138.78ZM146.641 13.032C146.641 12.024 146.845 11.142 147.253 10.386C147.661 9.618 148.219 9.024 148.927 8.604C149.647 8.184 150.445 7.974 151.321 7.974C152.185 7.974 152.935 8.16 153.571 8.532C154.207 8.904 154.681 9.372 154.993 9.936V8.136H156.649V18H154.993V16.164C154.669 16.74 154.183 17.22 153.535 17.604C152.899 17.976 152.155 18.162 151.303 18.162C150.427 18.162 149.635 17.946 148.927 17.514C148.219 17.082 147.661 16.476 147.253 15.696C146.845 14.916 146.641 14.028 146.641 13.032ZM154.993 13.05C154.993 12.306 154.843 11.658 154.543 11.106C154.243 10.554 153.835 10.134 153.319 9.846C152.815 9.546 152.257 9.396 151.645 9.396C151.033 9.396 150.475 9.54 149.971 9.828C149.467 10.116 149.065 10.536 148.765 11.088C148.465 11.64 148.315 12.288 148.315 13.032C148.315 13.788 148.465 14.448 148.765 15.012C149.065 15.564 149.467 15.99 149.971 16.29C150.475 16.578 151.033 16.722 151.645 16.722C152.257 16.722 152.815 16.578 153.319 16.29C153.835 15.99 154.243 15.564 154.543 15.012C154.843 14.448 154.993 13.794 154.993 13.05ZM160.965 9.972C161.301 9.384 161.793 8.904 162.441 8.532C163.089 8.16 163.827 7.974 164.655 7.974C165.543 7.974 166.341 8.184 167.049 8.604C167.757 9.024 168.315 9.618 168.723 10.386C169.131 11.142 169.335 12.024 169.335 13.032C169.335 14.028 169.131 14.916 168.723 15.696C168.315 16.476 167.751 17.082 167.031 17.514C166.323 17.946 165.531 18.162 164.655 18.162C163.803 18.162 163.053 17.976 162.405 17.604C161.769 17.232 161.289 16.758 160.965 16.182V18H159.327V4.68H160.965V9.972ZM167.661 13.032C167.661 12.288 167.511 11.64 167.211 11.088C166.911 10.536 166.503 10.116 165.987 9.828C165.483 9.54 164.925 9.396 164.313 9.396C163.713 9.396 163.155 9.546 162.639 9.846C162.135 10.134 161.727 10.56 161.415 11.124C161.115 11.676 160.965 12.318 160.965 13.05C160.965 13.794 161.115 14.448 161.415 15.012C161.727 15.564 162.135 15.99 162.639 16.29C163.155 16.578 163.713 16.722 164.313 16.722C164.925 16.722 165.483 16.578 165.987 16.29C166.503 15.99 166.911 15.564 167.211 15.012C167.511 14.448 167.661 13.788 167.661 13.032ZM175.704 18.162C174.78 18.162 173.94 17.952 173.184 17.532C172.44 17.112 171.852 16.518 171.42 15.75C171 14.97 170.79 14.07 170.79 13.05C170.79 12.042 171.006 11.154 171.438 10.386C171.882 9.606 172.482 9.012 173.238 8.604C173.994 8.184 174.84 7.974 175.776 7.974C176.712 7.974 177.558 8.184 178.314 8.604C179.07 9.012 179.664 9.6 180.096 10.368C180.54 11.136 180.762 12.03 180.762 13.05C180.762 14.07 180.534 14.97 180.078 15.75C179.634 16.518 179.028 17.112 178.26 17.532C177.492 17.952 176.64 18.162 175.704 18.162ZM175.704 16.722C176.292 16.722 176.844 16.584 177.36 16.308C177.876 16.032 178.29 15.618 178.602 15.066C178.926 14.514 179.088 13.842 179.088 13.05C179.088 12.258 178.932 11.586 178.62 11.034C178.308 10.482 177.9 10.074 177.396 9.81C176.892 9.534 176.346 9.396 175.758 9.396C175.158 9.396 174.606 9.534 174.102 9.81C173.61 10.074 173.214 10.482 172.914 11.034C172.614 11.586 172.464 12.258 172.464 13.05C172.464 13.854 172.608 14.532 172.896 15.084C173.196 15.636 173.592 16.05 174.084 16.326C174.576 16.59 175.116 16.722 175.704 16.722ZM191.573 8.136V18H189.935V16.542C189.623 17.046 189.185 17.442 188.621 17.73C188.069 18.006 187.457 18.144 186.785 18.144C186.017 18.144 185.327 17.988 184.715 17.676C184.103 17.352 183.617 16.872 183.257 16.236C182.909 15.6 182.735 14.826 182.735 13.914V8.136H184.355V13.698C184.355 14.67 184.601 15.42 185.093 15.948C185.585 16.464 186.257 16.722 187.109 16.722C187.985 16.722 188.675 16.452 189.179 15.912C189.683 15.372 189.935 14.586 189.935 13.554V8.136H191.573ZM196.247 9.486V15.3C196.247 15.78 196.349 16.122 196.553 16.326C196.757 16.518 197.111 16.614 197.615 16.614H198.821V18H197.345C196.433 18 195.749 17.79 195.293 17.37C194.837 16.95 194.609 16.26 194.609 15.3V9.486H193.331V8.136H194.609V5.652H196.247V8.136H198.821V9.486H196.247ZM213.812 9.126C213.812 10.17 213.452 11.04 212.732 11.736C212.024 12.42 210.938 12.762 209.474 12.762H207.062V18H205.424V5.454H209.474C210.89 5.454 211.964 5.796 212.696 6.48C213.44 7.164 213.812 8.046 213.812 9.126ZM209.474 11.412C210.386 11.412 211.058 11.214 211.49 10.818C211.922 10.422 212.138 9.858 212.138 9.126C212.138 7.578 211.25 6.804 209.474 6.804H207.062V11.412H209.474ZM221.446 18.126C220.282 18.126 219.22 17.856 218.26 17.316C217.3 16.764 216.538 16.002 215.974 15.03C215.422 14.046 215.146 12.942 215.146 11.718C215.146 10.494 215.422 9.396 215.974 8.424C216.538 7.44 217.3 6.678 218.26 6.138C219.22 5.586 220.282 5.31 221.446 5.31C222.622 5.31 223.69 5.586 224.65 6.138C225.61 6.678 226.366 7.434 226.918 8.406C227.47 9.378 227.746 10.482 227.746 11.718C227.746 12.954 227.47 14.058 226.918 15.03C226.366 16.002 225.61 16.764 224.65 17.316C223.69 17.856 222.622 18.126 221.446 18.126ZM221.446 16.704C222.322 16.704 223.108 16.5 223.804 16.092C224.512 15.684 225.064 15.102 225.46 14.346C225.868 13.59 226.072 12.714 226.072 11.718C226.072 10.71 225.868 9.834 225.46 9.09C225.064 8.334 224.518 7.752 223.822 7.344C223.126 6.936 222.334 6.732 221.446 6.732C220.558 6.732 219.766 6.936 219.07 7.344C218.374 7.752 217.822 8.334 217.414 9.09C217.018 9.834 216.82 10.71 216.82 11.718C216.82 12.714 217.018 13.59 217.414 14.346C217.822 15.102 218.374 15.684 219.07 16.092C219.778 16.5 220.57 16.704 221.446 16.704ZM233.725 5.454C235.093 5.454 236.275 5.712 237.271 6.228C238.279 6.732 239.047 7.458 239.575 8.406C240.115 9.354 240.385 10.47 240.385 11.754C240.385 13.038 240.115 14.154 239.575 15.102C239.047 16.038 238.279 16.758 237.271 17.262C236.275 17.754 235.093 18 233.725 18H229.819V5.454H233.725ZM233.725 16.65C235.345 16.65 236.581 16.224 237.433 15.372C238.285 14.508 238.711 13.302 238.711 11.754C238.711 10.194 238.279 8.976 237.415 8.1C236.563 7.224 235.333 6.786 233.725 6.786H231.457V16.65H233.725ZM255.552 9.126C255.552 10.17 255.192 11.04 254.472 11.736C253.764 12.42 252.678 12.762 251.214 12.762H248.802V18H247.164V5.454H251.214C252.63 5.454 253.704 5.796 254.436 6.48C255.18 7.164 255.552 8.046 255.552 9.126ZM251.214 11.412C252.126 11.412 252.798 11.214 253.23 10.818C253.662 10.422 253.878 9.858 253.878 9.126C253.878 7.578 252.99 6.804 251.214 6.804H248.802V11.412H251.214ZM259.136 9.738C259.424 9.174 259.832 8.736 260.36 8.424C260.9 8.112 261.554 7.956 262.322 7.956V9.648H261.89C260.054 9.648 259.136 10.644 259.136 12.636V18H257.498V8.136H259.136V9.738ZM268.425 18.162C267.501 18.162 266.661 17.952 265.905 17.532C265.161 17.112 264.573 16.518 264.141 15.75C263.721 14.97 263.511 14.07 263.511 13.05C263.511 12.042 263.727 11.154 264.159 10.386C264.603 9.606 265.203 9.012 265.959 8.604C266.715 8.184 267.561 7.974 268.497 7.974C269.433 7.974 270.279 8.184 271.035 8.604C271.791 9.012 272.385 9.6 272.817 10.368C273.261 11.136 273.483 12.03 273.483 13.05C273.483 14.07 273.255 14.97 272.799 15.75C272.355 16.518 271.749 17.112 270.981 17.532C270.213 17.952 269.361 18.162 268.425 18.162ZM268.425 16.722C269.013 16.722 269.565 16.584 270.081 16.308C270.597 16.032 271.011 15.618 271.323 15.066C271.647 14.514 271.809 13.842 271.809 13.05C271.809 12.258 271.653 11.586 271.341 11.034C271.029 10.482 270.621 10.074 270.117 9.81C269.613 9.534 269.067 9.396 268.479 9.396C267.879 9.396 267.327 9.534 266.823 9.81C266.331 10.074 265.935 10.482 265.635 11.034C265.335 11.586 265.185 12.258 265.185 13.05C265.185 13.854 265.329 14.532 265.617 15.084C265.917 15.636 266.313 16.05 266.805 16.326C267.297 16.59 267.837 16.722 268.425 16.722ZM279.218 16.488L282.278 8.136H284.024L280.154 18H278.246L274.376 8.136H276.14L279.218 16.488ZM286.392 6.534C286.08 6.534 285.816 6.426 285.6 6.21C285.384 5.994 285.276 5.73 285.276 5.418C285.276 5.106 285.384 4.842 285.6 4.626C285.816 4.41 286.08 4.302 286.392 4.302C286.692 4.302 286.944 4.41 287.148 4.626C287.364 4.842 287.472 5.106 287.472 5.418C287.472 5.73 287.364 5.994 287.148 6.21C286.944 6.426 286.692 6.534 286.392 6.534ZM287.184 8.136V18H285.546V8.136H287.184ZM289.274 13.032C289.274 12.024 289.478 11.142 289.886 10.386C290.294 9.618 290.852 9.024 291.56 8.604C292.28 8.184 293.084 7.974 293.972 7.974C294.74 7.974 295.454 8.154 296.114 8.514C296.774 8.862 297.278 9.324 297.626 9.9V4.68H299.282V18H297.626V16.146C297.302 16.734 296.822 17.22 296.186 17.604C295.55 17.976 294.806 18.162 293.954 18.162C293.078 18.162 292.28 17.946 291.56 17.514C290.852 17.082 290.294 16.476 289.886 15.696C289.478 14.916 289.274 14.028 289.274 13.032ZM297.626 13.05C297.626 12.306 297.476 11.658 297.176 11.106C296.876 10.554 296.468 10.134 295.952 9.846C295.448 9.546 294.89 9.396 294.278 9.396C293.666 9.396 293.108 9.54 292.604 9.828C292.1 10.116 291.698 10.536 291.398 11.088C291.098 11.64 290.948 12.288 290.948 13.032C290.948 13.788 291.098 14.448 291.398 15.012C291.698 15.564 292.1 15.99 292.604 16.29C293.108 16.578 293.666 16.722 294.278 16.722C294.89 16.722 295.448 16.578 295.952 16.29C296.468 15.99 296.876 15.564 297.176 15.012C297.476 14.448 297.626 13.794 297.626 13.05ZM310.96 12.69C310.96 13.002 310.942 13.332 310.906 13.68H303.022C303.082 14.652 303.412 15.414 304.012 15.966C304.624 16.506 305.362 16.776 306.226 16.776C306.934 16.776 307.522 16.614 307.99 16.29C308.47 15.954 308.806 15.51 308.998 14.958H310.762C310.498 15.906 309.97 16.68 309.178 17.28C308.386 17.868 307.402 18.162 306.226 18.162C305.29 18.162 304.45 17.952 303.706 17.532C302.974 17.112 302.398 16.518 301.978 15.75C301.558 14.97 301.348 14.07 301.348 13.05C301.348 12.03 301.552 11.136 301.96 10.368C302.368 9.6 302.938 9.012 303.67 8.604C304.414 8.184 305.266 7.974 306.226 7.974C307.162 7.974 307.99 8.178 308.71 8.586C309.43 8.994 309.982 9.558 310.366 10.278C310.762 10.986 310.96 11.79 310.96 12.69ZM309.268 12.348C309.268 11.724 309.13 11.19 308.854 10.746C308.578 10.29 308.2 9.948 307.72 9.72C307.252 9.48 306.73 9.36 306.154 9.36C305.326 9.36 304.618 9.624 304.03 10.152C303.454 10.68 303.124 11.412 303.04 12.348H309.268ZM314.67 9.738C314.958 9.174 315.366 8.736 315.894 8.424C316.434 8.112 317.088 7.956 317.856 7.956V9.648H317.424C315.588 9.648 314.67 10.644 314.67 12.636V18H313.032V8.136H314.67V9.738ZM323.149 18.162C322.393 18.162 321.715 18.036 321.115 17.784C320.515 17.52 320.041 17.16 319.693 16.704C319.345 16.236 319.153 15.702 319.117 15.102H320.809C320.857 15.594 321.085 15.996 321.493 16.308C321.913 16.62 322.459 16.776 323.131 16.776C323.755 16.776 324.247 16.638 324.607 16.362C324.967 16.086 325.147 15.738 325.147 15.318C325.147 14.886 324.955 14.568 324.571 14.364C324.187 14.148 323.593 13.938 322.789 13.734C322.057 13.542 321.457 13.35 320.989 13.158C320.533 12.954 320.137 12.66 319.801 12.276C319.477 11.88 319.315 11.364 319.315 10.728C319.315 10.224 319.465 9.762 319.765 9.342C320.065 8.922 320.491 8.592 321.043 8.352C321.595 8.1 322.225 7.974 322.933 7.974C324.025 7.974 324.907 8.25 325.579 8.802C326.251 9.354 326.611 10.11 326.659 11.07H325.021C324.985 10.554 324.775 10.14 324.391 9.828C324.019 9.516 323.515 9.36 322.879 9.36C322.291 9.36 321.823 9.486 321.475 9.738C321.127 9.99 320.953 10.32 320.953 10.728C320.953 11.052 321.055 11.322 321.259 11.538C321.475 11.742 321.739 11.91 322.051 12.042C322.375 12.162 322.819 12.3 323.383 12.456C324.091 12.648 324.667 12.84 325.111 13.032C325.555 13.212 325.933 13.488 326.245 13.86C326.569 14.232 326.737 14.718 326.749 15.318C326.749 15.858 326.599 16.344 326.299 16.776C325.999 17.208 325.573 17.55 325.021 17.802C324.481 18.042 323.857 18.162 323.149 18.162Z" fill="#676879"/>
<path d="M14.1161 4.29289C14.6043 3.90237 15.3957 3.90237 15.8839 4.29289L24.6339 11.2929C25.122 11.6834 25.122 12.3166 24.6339 12.7071L15.8839 19.7071C15.3957 20.0976 14.6043 20.0976 14.1161 19.7071C13.628 19.3166 13.628 18.6834 14.1161 18.2929L20.7322 13H6.25C5.55964 13 5 12.5523 5 12C5 11.4477 5.55964 11 6.25 11H20.7322L14.1161 5.70711C13.628 5.31658 13.628 4.68342 14.1161 4.29289Z" fill="#676879"/>
</svg>
